STARTFONT 2.3
FONT -FontForge-Monofett-Book-R-Normal--10-100-72-72-P-56-ISO10646-1
SIZE 10 72 72  2
FONTBOUNDINGBOX 7 12 0 -2
COMMENT "Generated by fontforge, http://fontforge.sourceforge.net"
COMMENT "Copyright (c) 2011 by vernon adams. All rights reserved."
STARTPROPERTIES 41
FOUNDRY "FontForge"
FAMILY_NAME "Monofett"
WEIGHT_NAME "Book"
SLANT "R"
SETWIDTH_NAME "Normal"
ADD_STYLE_NAME ""
PIXEL_SIZE 10
POINT_SIZE 100
RESOLUTION_X 72
RESOLUTION_Y 72
SPACING "P"
AVERAGE_WIDTH 56
CHARSET_REGISTRY "ISO10646"
CHARSET_ENCODING "1"
FONTNAME_REGISTRY ""
CHARSET_COLLECTIONS "ISO8859-2 ISO8859-9 ISO8859-4 ISO10646-1"
BITS_PER_PIXEL 2
FONT_NAME "Monofett"
FACE_NAME "Monofett"
COPYRIGHT "Copyright (c) 2011 by vernon adams. All rights reserved."
FONT_VERSION "1.000"
FONT_ASCENT 8
FONT_DESCENT 2
UNDERLINE_POSITION -1
UNDERLINE_THICKNESS 1
X_HEIGHT 6
CAP_HEIGHT 6
RAW_ASCENT 799
RAW_DESCENT 200
NORM_SPACE 1
RELATIVE_WEIGHT 40
RELATIVE_SETWIDTH 50
SUPERSCRIPT_X 0
SUPERSCRIPT_Y 4
SUPERSCRIPT_SIZE 6
SUBSCRIPT_X 0
SUBSCRIPT_Y 1
SUBSCRIPT_SIZE 6
FIGURE_WIDTH 6
AVG_LOWERCASE_WIDTH 60
AVG_UPPERCASE_WIDTH 60
ENDPROPERTIES
CHARS 409
STARTCHAR uni000D
ENCODING 13
SWIDTH 144 0
DWIDTH 1 0
BBX 1 1 0 0
BITMAP
00
ENDCHAR
STARTCHAR space
ENCODING 32
SWIDTH 144 0
DWIDTH 1 0
BBX 1 1 0 0
BITMAP
00
ENDCHAR
STARTCHAR exclam
ENCODING 33
SWIDTH 424 0
DWIDTH 4 0
BBX 5 7 0 0
BITMAP
2500
BB00
FB40
FB40
FB40
FF40
7E00
ENDCHAR
STARTCHAR quotedbl
ENCODING 34
SWIDTH 424 0
DWIDTH 4 0
BBX 5 7 0 0
BITMAP
1500
A700
FF40
FF40
FF40
FF40
7E00
ENDCHAR
STARTCHAR numbersign
ENCODING 35
SWIDTH 482 0
DWIDTH 5 0
BBX 5 7 0 0
BITMAP
2A00
A680
E6C0
D6C0
EBC0
FF80
7F40
ENDCHAR
STARTCHAR dollar
ENCODING 36
SWIDTH 578 0
DWIDTH 6 0
BBX 6 7 0 0
BITMAP
2A40
A5A0
E6E0
F9A0
E5E0
FFE0
7F90
ENDCHAR
STARTCHAR percent
ENCODING 37
SWIDTH 578 0
DWIDTH 6 0
BBX 6 7 0 0
BITMAP
2A40
9AE0
DAE0
F560
FAA0
FFE0
7F90
ENDCHAR
STARTCHAR ampersand
ENCODING 38
SWIDTH 578 0
DWIDTH 6 0
BBX 6 7 0 0
BITMAP
2540
A6E0
F560
EBA0
F5A0
FFE0
7F90
ENDCHAR
STARTCHAR quotesingle
ENCODING 39
SWIDTH 424 0
DWIDTH 4 0
BBX 5 7 0 0
BITMAP
2900
BB00
FF40
FF40
FF40
FF40
7E00
ENDCHAR
STARTCHAR parenleft
ENCODING 40
SWIDTH 483 0
DWIDTH 5 0
BBX 5 7 0 0
BITMAP
2500
AB80
EFC0
EFC0
EBC0
FB80
7F40
ENDCHAR
STARTCHAR parenright
ENCODING 41
SWIDTH 483 0
DWIDTH 5 0
BBX 5 7 0 0
BITMAP
1600
BA80
FAC0
FAC0
FAC0
FB80
7F40
ENDCHAR
STARTCHAR asterisk
ENCODING 42
SWIDTH 428 0
DWIDTH 4 0
BBX 5 7 0 0
BITMAP
1900
9200
E740
FF40
FF40
FF40
7E00
ENDCHAR
STARTCHAR plus
ENCODING 43
SWIDTH 428 0
DWIDTH 4 0
BBX 5 7 0 0
BITMAP
2900
A700
E740
FF40
FF40
FF40
7E00
ENDCHAR
STARTCHAR comma
ENCODING 44
SWIDTH 428 0
DWIDTH 4 0
BBX 5 7 0 0
BITMAP
2900
BF00
FF40
FF40
FB40
FF40
7E00
ENDCHAR
STARTCHAR hyphen
ENCODING 45
SWIDTH 428 0
DWIDTH 4 0
BBX 5 7 0 0
BITMAP
2900
BF00
E740
FF40
FF40
FF40
7E00
ENDCHAR
STARTCHAR period
ENCODING 46
SWIDTH 428 0
DWIDTH 4 0
BBX 5 7 0 0
BITMAP
2900
BF00
FF40
FF40
FB40
FF40
7E00
ENDCHAR
STARTCHAR slash
ENCODING 47
SWIDTH 428 0
DWIDTH 4 0
BBX 5 7 0 0
BITMAP
2900
B700
FB40
EB40
EF40
FF40
7E00
ENDCHAR
STARTCHAR zero
ENCODING 48
SWIDTH 578 0
DWIDTH 6 0
BBX 6 7 0 0
BITMAP
2540
AA60
EF60
EF60
E5A0
FFE0
7F90
ENDCHAR
STARTCHAR one
ENCODING 49
SWIDTH 578 0
DWIDTH 6 0
BBX 6 7 0 0
BITMAP
2A40
BAE0
FAE0
FAE0
FAE0
FFE0
7F90
ENDCHAR
STARTCHAR two
ENCODING 50
SWIDTH 578 0
DWIDTH 6 0
BBX 6 7 0 0
BITMAP
2540
AAA0
FAA0
EBE0
E6E0
FFE0
7F90
ENDCHAR
STARTCHAR three
ENCODING 51
SWIDTH 578 0
DWIDTH 6 0
BBX 6 7 0 0
BITMAP
2540
AAA0
F9A0
FFA0
E5A0
FFE0
7F90
ENDCHAR
STARTCHAR four
ENCODING 52
SWIDTH 578 0
DWIDTH 6 0
BBX 6 7 0 0
BITMAP
2A40
A9E0
E9E0
F5A0
FEE0
FFE0
7F90
ENDCHAR
STARTCHAR five
ENCODING 53
SWIDTH 578 0
DWIDTH 6 0
BBX 6 7 0 0
BITMAP
2540
AAE0
E5A0
FF60
E5A0
FFE0
7F90
ENDCHAR
STARTCHAR six
ENCODING 54
SWIDTH 578 0
DWIDTH 6 0
BBX 6 7 0 0
BITMAP
2540
AAE0
E5A0
EF60
E5A0
FFE0
7F90
ENDCHAR
STARTCHAR seven
ENCODING 55
SWIDTH 578 0
DWIDTH 6 0
BBX 6 7 0 0
BITMAP
2540
B9E0
FDE0
FAE0
FBE0
FFE0
7F90
ENDCHAR
STARTCHAR eight
ENCODING 56
SWIDTH 578 0
DWIDTH 6 0
BBX 6 7 0 0
BITMAP
2540
AA60
E560
EF60
E5A0
FFE0
7F90
ENDCHAR
STARTCHAR nine
ENCODING 57
SWIDTH 578 0
DWIDTH 6 0
BBX 6 7 0 0
BITMAP
2540
9A60
EA60
FA60
F5A0
FFE0
7F90
ENDCHAR
STARTCHAR colon
ENCODING 58
SWIDTH 428 0
DWIDTH 4 0
BBX 5 7 0 0
BITMAP
2900
BF00
FF40
FB40
FB40
FF40
7E00
ENDCHAR
STARTCHAR semicolon
ENCODING 59
SWIDTH 428 0
DWIDTH 4 0
BBX 5 7 0 0
BITMAP
2900
BF00
FF40
FB40
FB40
FF40
7E00
ENDCHAR
STARTCHAR less
ENCODING 60
SWIDTH 482 0
DWIDTH 5 0
BBX 5 8 0 0
BITMAP
1900
BF80
FB80
EBC0
EFC0
FB80
BF80
1500
ENDCHAR
STARTCHAR equal
ENCODING 61
SWIDTH 482 0
DWIDTH 5 0
BBX 5 8 0 0
BITMAP
1900
BF80
FF80
FBC0
FBC0
FF80
BF80
1900
ENDCHAR
STARTCHAR greater
ENCODING 62
SWIDTH 482 0
DWIDTH 5 0
BBX 5 8 0 0
BITMAP
1900
BF80
FB80
FBC0
FAC0
FB80
BF80
1900
ENDCHAR
STARTCHAR question
ENCODING 63
SWIDTH 578 0
DWIDTH 6 0
BBX 6 7 0 0
BITMAP
2940
BAA0
FEA0
FEE0
FFE0
FFE0
7F90
ENDCHAR
STARTCHAR at
ENCODING 64
SWIDTH 578 0
DWIDTH 6 0
BBX 6 7 0 0
BITMAP
2540
9A60
E9A0
E5A0
DAA0
FBE0
7F90
ENDCHAR
STARTCHAR A
ENCODING 65
SWIDTH 578 0
DWIDTH 6 0
BBX 6 7 0 0
BITMAP
2540
A6A0
EAA0
EA60
EFA0
FFE0
7F90
ENDCHAR
STARTCHAR B
ENCODING 66
SWIDTH 578 0
DWIDTH 6 0
BBX 6 7 0 0
BITMAP
1540
AAA0
E5A0
EFA0
E5A0
FFE0
7F90
ENDCHAR
STARTCHAR C
ENCODING 67
SWIDTH 578 0
DWIDTH 6 0
BBX 6 7 0 0
BITMAP
2540
AAE0
EFE0
EFE0
E5E0
FFE0
7F90
ENDCHAR
STARTCHAR D
ENCODING 68
SWIDTH 578 0
DWIDTH 6 0
BBX 6 7 0 0
BITMAP
1540
AA60
EF60
EF60
E5A0
FFE0
7F90
ENDCHAR
STARTCHAR E
ENCODING 69
SWIDTH 578 0
DWIDTH 6 0
BBX 6 7 0 0
BITMAP
2540
B6E0
F6E0
FBE0
F5A0
FFE0
7F90
ENDCHAR
STARTCHAR F
ENCODING 70
SWIDTH 578 0
DWIDTH 6 0
BBX 6 7 0 0
BITMAP
2540
B6E0
F5E0
FBE0
FBE0
FFE0
7F90
ENDCHAR
STARTCHAR G
ENCODING 71
SWIDTH 578 0
DWIDTH 6 0
BBX 6 7 0 0
BITMAP
2540
AAE0
EAA0
EA60
F5A0
FFE0
7F90
ENDCHAR
STARTCHAR H
ENCODING 72
SWIDTH 578 0
DWIDTH 6 0
BBX 6 7 0 0
BITMAP
1A40
AFA0
E560
EFA0
EFA0
FFE0
7F90
ENDCHAR
STARTCHAR I
ENCODING 73
SWIDTH 578 0
DWIDTH 6 0
BBX 6 7 0 0
BITMAP
2540
B9E0
FEE0
FEE0
F5A0
FFE0
7F90
ENDCHAR
STARTCHAR J
ENCODING 74
SWIDTH 578 0
DWIDTH 6 0
BBX 6 7 0 0
BITMAP
2A40
BDE0
FDE0
FDE0
FAE0
FFE0
7F90
ENDCHAR
STARTCHAR K
ENCODING 75
SWIDTH 578 0
DWIDTH 6 0
BBX 6 7 0 0
BITMAP
2A40
B6A0
F6E0
F5E0
FBA0
FFE0
7F90
ENDCHAR
STARTCHAR L
ENCODING 76
SWIDTH 578 0
DWIDTH 6 0
BBX 6 7 0 0
BITMAP
2A40
B7E0
F7E0
F7E0
F5E0
FFE0
7F90
ENDCHAR
STARTCHAR M
ENCODING 77
SWIDTH 578 0
DWIDTH 6 0
BBX 6 7 0 0
BITMAP
1540
9A60
DA60
DF60
EFA0
FFE0
7F90
ENDCHAR
STARTCHAR N
ENCODING 78
SWIDTH 578 0
DWIDTH 6 0
BBX 6 7 0 0
BITMAP
1540
AA60
EF60
EF60
EFA0
FFE0
7F90
ENDCHAR
STARTCHAR O
ENCODING 79
SWIDTH 578 0
DWIDTH 6 0
BBX 6 7 0 0
BITMAP
2540
AA60
EF60
EF60
E5A0
FFE0
7F90
ENDCHAR
STARTCHAR P
ENCODING 80
SWIDTH 578 0
DWIDTH 6 0
BBX 6 7 0 0
BITMAP
2540
B660
FA60
F6E0
FBE0
FFE0
7F90
ENDCHAR
STARTCHAR Q
ENCODING 81
SWIDTH 578 0
DWIDTH 6 0
BBX 6 7 0 0
BITMAP
2540
AA60
EF60
EF60
E5A0
FEE0
7F90
ENDCHAR
STARTCHAR R
ENCODING 82
SWIDTH 578 0
DWIDTH 6 0
BBX 6 7 0 0
BITMAP
1540
AAA0
EAA0
EAA0
EFA0
FFE0
7F90
ENDCHAR
STARTCHAR S
ENCODING 83
SWIDTH 578 0
DWIDTH 6 0
BBX 6 7 0 0
BITMAP
2540
AAE0
E6A0
FF60
F5A0
FFE0
7F90
ENDCHAR
STARTCHAR T
ENCODING 84
SWIDTH 578 0
DWIDTH 6 0
BBX 6 7 0 0
BITMAP
2540
B9E0
FEE0
FEE0
FEE0
FFE0
7F90
ENDCHAR
STARTCHAR U
ENCODING 85
SWIDTH 578 0
DWIDTH 6 0
BBX 6 7 0 0
BITMAP
1A40
AF60
EF60
EF60
E5A0
FFE0
7F90
ENDCHAR
STARTCHAR V
ENCODING 86
SWIDTH 578 0
DWIDTH 6 0
BBX 6 7 0 0
BITMAP
1A40
ABA0
F6A0
F5E0
FAE0
FFE0
7F90
ENDCHAR
STARTCHAR W
ENCODING 87
SWIDTH 578 0
DWIDTH 6 0
BBX 6 7 0 0
BITMAP
1A40
9A60
DA60
D560
EAA0
FFE0
7F90
ENDCHAR
STARTCHAR X
ENCODING 88
SWIDTH 578 0
DWIDTH 6 0
BBX 6 7 0 0
BITMAP
2A40
BAA0
F9E0
F5E0
EBA0
FFE0
7F90
ENDCHAR
STARTCHAR Y
ENCODING 89
SWIDTH 578 0
DWIDTH 6 0
BBX 6 7 0 0
BITMAP
1A40
B6A0
F5E0
FAE0
FEE0
FFE0
7F90
ENDCHAR
STARTCHAR Z
ENCODING 90
SWIDTH 578 0
DWIDTH 6 0
BBX 6 7 0 0
BITMAP
2540
B9E0
FEE0
F7E0
F6E0
FFE0
7F90
ENDCHAR
STARTCHAR bracketleft
ENCODING 91
SWIDTH 484 0
DWIDTH 5 0
BBX 5 7 0 0
BITMAP
2600
B780
F7C0
F7C0
F7C0
FB80
7F40
ENDCHAR
STARTCHAR backslash
ENCODING 92
SWIDTH 516 0
DWIDTH 5 0
BBX 6 7 0 0
BITMAP
2A40
B7C0
F7D0
FBD0
FBD0
FFC0
7F40
ENDCHAR
STARTCHAR bracketright
ENCODING 93
SWIDTH 484 0
DWIDTH 5 0
BBX 5 7 0 0
BITMAP
2600
B780
F7C0
F7C0
F7C0
FB80
7F40
ENDCHAR
STARTCHAR asciicircum
ENCODING 94
SWIDTH 355 0
DWIDTH 4 0
BBX 4 4 0 2
BITMAP
78
AD
FE
69
ENDCHAR
STARTCHAR underscore
ENCODING 95
SWIDTH 428 0
DWIDTH 4 0
BBX 5 7 0 0
BITMAP
2900
BF00
FF40
FF40
EB40
EB40
7E00
ENDCHAR
STARTCHAR grave
ENCODING 96
SWIDTH 308 0
DWIDTH 3 0
BBX 3 4 0 0
BITMAP
10
E8
AC
38
ENDCHAR
STARTCHAR a
ENCODING 97
SWIDTH 578 0
DWIDTH 6 0
BBX 6 7 0 0
BITMAP
2540
BAA0
FAA0
DAA0
E5A0
FFE0
7F90
ENDCHAR
STARTCHAR b
ENCODING 98
SWIDTH 578 0
DWIDTH 6 0
BBX 6 7 0 0
BITMAP
1540
AAA0
E5A0
EFA0
E5A0
FFE0
7F90
ENDCHAR
STARTCHAR c
ENCODING 99
SWIDTH 578 0
DWIDTH 6 0
BBX 6 7 0 0
BITMAP
2540
AAE0
EFE0
EFE0
E5E0
FFE0
7F90
ENDCHAR
STARTCHAR d
ENCODING 100
SWIDTH 578 0
DWIDTH 6 0
BBX 6 7 0 0
BITMAP
1540
AA60
EF60
EF60
E5A0
FFE0
7F90
ENDCHAR
STARTCHAR e
ENCODING 101
SWIDTH 578 0
DWIDTH 6 0
BBX 6 7 0 0
BITMAP
2540
AAA0
D5A0
DFE0
E5E0
FFE0
7F90
ENDCHAR
STARTCHAR f
ENCODING 102
SWIDTH 578 0
DWIDTH 6 0
BBX 6 7 0 0
BITMAP
2540
B6E0
F5E0
FBE0
FBE0
FFE0
7F90
ENDCHAR
STARTCHAR g
ENCODING 103
SWIDTH 578 0
DWIDTH 6 0
BBX 6 7 0 0
BITMAP
2540
AAE0
EAA0
EA60
F5A0
FFE0
7F90
ENDCHAR
STARTCHAR h
ENCODING 104
SWIDTH 578 0
DWIDTH 6 0
BBX 6 7 0 0
BITMAP
1A40
AFA0
E560
EFA0
EFA0
FFE0
7F90
ENDCHAR
STARTCHAR i
ENCODING 105
SWIDTH 578 0
DWIDTH 6 0
BBX 6 7 0 0
BITMAP
2540
B9E0
FEE0
FEE0
F5A0
FFE0
7F90
ENDCHAR
STARTCHAR j
ENCODING 106
SWIDTH 578 0
DWIDTH 6 0
BBX 6 7 0 0
BITMAP
2A40
BDE0
FDE0
FDE0
FAE0
FFE0
7F90
ENDCHAR
STARTCHAR k
ENCODING 107
SWIDTH 578 0
DWIDTH 6 0
BBX 6 7 0 0
BITMAP
2A40
B6A0
F6E0
F5E0
FBA0
FFE0
7F90
ENDCHAR
STARTCHAR l
ENCODING 108
SWIDTH 578 0
DWIDTH 6 0
BBX 6 7 0 0
BITMAP
2A40
B7E0
F7E0
F7E0
F5E0
FFE0
7F90
ENDCHAR
STARTCHAR m
ENCODING 109
SWIDTH 578 0
DWIDTH 6 0
BBX 6 7 0 0
BITMAP
1540
9A60
DA60
DF60
EFA0
FFE0
7F90
ENDCHAR
STARTCHAR n
ENCODING 110
SWIDTH 578 0
DWIDTH 6 0
BBX 6 7 0 0
BITMAP
1540
AA60
EF60
EF60
EFA0
FFE0
7F90
ENDCHAR
STARTCHAR o
ENCODING 111
SWIDTH 578 0
DWIDTH 6 0
BBX 6 7 0 0
BITMAP
2540
AA60
EF60
EF60
E5A0
FFE0
7F90
ENDCHAR
STARTCHAR p
ENCODING 112
SWIDTH 578 0
DWIDTH 6 0
BBX 6 7 0 0
BITMAP
2540
B660
FA60
F6E0
FBE0
FFE0
7F90
ENDCHAR
STARTCHAR q
ENCODING 113
SWIDTH 578 0
DWIDTH 6 0
BBX 6 7 0 0
BITMAP
2540
AA60
EF60
EF60
E5A0
FEE0
7F90
ENDCHAR
STARTCHAR r
ENCODING 114
SWIDTH 578 0
DWIDTH 6 0
BBX 6 7 0 0
BITMAP
1540
AAA0
EAA0
EAA0
EFA0
FFE0
7F90
ENDCHAR
STARTCHAR s
ENCODING 115
SWIDTH 578 0
DWIDTH 6 0
BBX 6 7 0 0
BITMAP
2540
AAE0
E6A0
FF60
F5A0
FFE0
7F90
ENDCHAR
STARTCHAR t
ENCODING 116
SWIDTH 578 0
DWIDTH 6 0
BBX 6 7 0 0
BITMAP
2540
B9E0
FEE0
FEE0
FEE0
FFE0
7F90
ENDCHAR
STARTCHAR u
ENCODING 117
SWIDTH 578 0
DWIDTH 6 0
BBX 6 7 0 0
BITMAP
1A40
AF60
EF60
EF60
E5A0
FFE0
7F90
ENDCHAR
STARTCHAR v
ENCODING 118
SWIDTH 578 0
DWIDTH 6 0
BBX 6 7 0 0
BITMAP
1A40
ABA0
F6A0
F5E0
FAE0
FFE0
7F90
ENDCHAR
STARTCHAR w
ENCODING 119
SWIDTH 578 0
DWIDTH 6 0
BBX 6 7 0 0
BITMAP
1A40
9A60
DA60
D560
EAA0
FFE0
7F90
ENDCHAR
STARTCHAR x
ENCODING 120
SWIDTH 578 0
DWIDTH 6 0
BBX 6 7 0 0
BITMAP
2A40
BAA0
F9E0
F5E0
EBA0
FFE0
7F90
ENDCHAR
STARTCHAR y
ENCODING 121
SWIDTH 578 0
DWIDTH 6 0
BBX 6 7 0 0
BITMAP
1A40
B6A0
F5E0
FAE0
FEE0
FFE0
7F90
ENDCHAR
STARTCHAR z
ENCODING 122
SWIDTH 578 0
DWIDTH 6 0
BBX 6 7 0 0
BITMAP
2540
B9E0
FEE0
F7E0
F6E0
FFE0
7F90
ENDCHAR
STARTCHAR braceleft
ENCODING 123
SWIDTH 484 0
DWIDTH 5 0
BBX 5 7 0 0
BITMAP
2500
AB80
EBC0
EBC0
EBC0
FB80
7F40
ENDCHAR
STARTCHAR bar
ENCODING 124
SWIDTH 484 0
DWIDTH 5 0
BBX 5 7 0 0
BITMAP
2600
BB80
FBC0
FBC0
FBC0
FF80
7F40
ENDCHAR
STARTCHAR braceright
ENCODING 125
SWIDTH 484 0
DWIDTH 5 0
BBX 5 7 0 0
BITMAP
1600
B780
FAC0
FAC0
F7C0
FB80
7F40
ENDCHAR
STARTCHAR asciitilde
ENCODING 126
SWIDTH 578 0
DWIDTH 6 0
BBX 6 7 0 0
BITMAP
2A40
BFE0
E9A0
FFE0
FFE0
FFE0
7F90
ENDCHAR
STARTCHAR uni00A0
ENCODING 160
SWIDTH 151 0
DWIDTH 2 0
BBX 1 1 0 0
BITMAP
00
ENDCHAR
STARTCHAR exclamdown
ENCODING 161
SWIDTH 424 0
DWIDTH 4 0
BBX 5 7 0 0
BITMAP
2900
BB00
FB40
FB40
FB40
FF40
7E00
ENDCHAR
STARTCHAR cent
ENCODING 162
SWIDTH 578 0
DWIDTH 6 0
BBX 6 7 0 0
BITMAP
2A40
B5E0
EAE0
EAE0
F5E0
FFE0
7F90
ENDCHAR
STARTCHAR sterling
ENCODING 163
SWIDTH 578 0
DWIDTH 6 0
BBX 6 7 0 0
BITMAP
2940
B5E0
F6E0
F7E0
F5E0
FFE0
7F90
ENDCHAR
STARTCHAR currency
ENCODING 164
SWIDTH 578 0
DWIDTH 6 0
BBX 6 7 0 0
BITMAP
2A40
A5A0
FAA0
E5A0
FFE0
FFE0
7F90
ENDCHAR
STARTCHAR yen
ENCODING 165
SWIDTH 578 0
DWIDTH 6 0
BBX 6 7 0 0
BITMAP
1A40
AAE0
F5E0
F5E0
FAE0
FFE0
7F90
ENDCHAR
STARTCHAR brokenbar
ENCODING 166
SWIDTH 484 0
DWIDTH 5 0
BBX 5 7 0 0
BITMAP
2A00
B780
FBC0
F7C0
FBC0
FF80
7F40
ENDCHAR
STARTCHAR section
ENCODING 167
SWIDTH 578 0
DWIDTH 6 0
BBX 6 7 0 0
BITMAP
2940
AAE0
F6E0
F9E0
FEA0
FAE0
7F90
ENDCHAR
STARTCHAR dieresis
ENCODING 168
SWIDTH 388 0
DWIDTH 4 0
BBX 4 3 0 0
BITMAP
69
EB
A9
ENDCHAR
STARTCHAR copyright
ENCODING 169
SWIDTH 578 0
DWIDTH 6 0
BBX 6 7 0 0
BITMAP
2A40
AAA0
BBE0
BBE0
EAA0
FAE0
7F90
ENDCHAR
STARTCHAR ordfeminine
ENCODING 170
SWIDTH 578 0
DWIDTH 6 0
BBX 6 7 0 0
BITMAP
2540
BAA0
F5A0
F5A0
FFE0
FFE0
7F90
ENDCHAR
STARTCHAR guillemotleft
ENCODING 171
SWIDTH 578 0
DWIDTH 6 0
BBX 6 7 0 0
BITMAP
2A40
BAE0
EAE0
EAE0
FAE0
FFE0
7F90
ENDCHAR
STARTCHAR uni00AD
ENCODING 173
SWIDTH 428 0
DWIDTH 4 0
BBX 5 7 0 0
BITMAP
2900
BF00
E740
FF40
FF40
FF40
7E00
ENDCHAR
STARTCHAR registered
ENCODING 174
SWIDTH 578 0
DWIDTH 6 0
BBX 6 7 0 0
BITMAP
2A40
A6A0
BAE0
BAE0
EAA0
FAE0
7F90
ENDCHAR
STARTCHAR macron
ENCODING 175
SWIDTH 428 0
DWIDTH 4 0
BBX 5 3 0 0
BITMAP
6E00
E740
BF00
ENDCHAR
STARTCHAR degree
ENCODING 176
SWIDTH 428 0
DWIDTH 4 0
BBX 5 7 0 0
BITMAP
1500
A700
EB40
FF40
FF40
FF40
7E00
ENDCHAR
STARTCHAR plusminus
ENCODING 177
SWIDTH 428 0
DWIDTH 4 0
BBX 5 7 0 0
BITMAP
2900
A700
E740
E740
FF40
FF40
7E00
ENDCHAR
STARTCHAR uni00B2
ENCODING 178
SWIDTH 578 0
DWIDTH 6 0
BBX 6 7 0 0
BITMAP
2A40
B9E0
F6E0
FAE0
FFE0
FFE0
7F90
ENDCHAR
STARTCHAR uni00B3
ENCODING 179
SWIDTH 578 0
DWIDTH 6 0
BBX 6 7 0 0
BITMAP
2940
B9A0
F9A0
FAE0
FFE0
FFE0
7F90
ENDCHAR
STARTCHAR acute
ENCODING 180
SWIDTH 308 0
DWIDTH 3 0
BBX 3 4 0 0
BITMAP
10
AC
E8
B4
ENDCHAR
STARTCHAR uni00B5
ENCODING 181
SWIDTH 578 0
DWIDTH 6 0
BBX 6 7 0 0
BITMAP
1A40
AFA0
EFA0
DFA0
D5A0
EFE0
7F90
ENDCHAR
STARTCHAR paragraph
ENCODING 182
SWIDTH 578 0
DWIDTH 6 0
BBX 6 7 0 0
BITMAP
2A40
A1A0
E1A0
FEA0
FEE0
FFE0
7F90
ENDCHAR
STARTCHAR periodcentered
ENCODING 183
SWIDTH 428 0
DWIDTH 4 0
BBX 5 7 0 0
BITMAP
2900
BF00
FB40
FF40
FF40
FF40
7E00
ENDCHAR
STARTCHAR cedilla
ENCODING 184
SWIDTH 101 0
DWIDTH 1 0
BBX 1 2 0 -2
BITMAP
80
40
ENDCHAR
STARTCHAR uni00B9
ENCODING 185
SWIDTH 578 0
DWIDTH 6 0
BBX 6 7 0 0
BITMAP
2A40
BAE0
FAE0
FFE0
FFE0
FFE0
7F90
ENDCHAR
STARTCHAR ordmasculine
ENCODING 186
SWIDTH 578 0
DWIDTH 6 0
BBX 6 7 0 0
BITMAP
2540
A660
EB60
F6A0
FFE0
FFE0
7F90
ENDCHAR
STARTCHAR guillemotright
ENCODING 187
SWIDTH 578 0
DWIDTH 6 0
BBX 6 7 0 0
BITMAP
2A40
BAE0
FAE0
FAE0
FAE0
FFE0
7F90
ENDCHAR
STARTCHAR onequarter
ENCODING 188
SWIDTH 578 0
DWIDTH 6 0
BBX 6 7 0 0
BITMAP
1A40
9BE0
D6A0
E560
FA60
FFE0
7F90
ENDCHAR
STARTCHAR onehalf
ENCODING 189
SWIDTH 578 0
DWIDTH 6 0
BBX 6 7 0 0
BITMAP
1A40
9BE0
D660
E660
F960
FFE0
7F90
ENDCHAR
STARTCHAR threequarters
ENCODING 190
SWIDTH 578 0
DWIDTH 6 0
BBX 6 7 0 0
BITMAP
1A40
9BE0
D660
E750
F960
FFE0
7F90
ENDCHAR
STARTCHAR questiondown
ENCODING 191
SWIDTH 578 0
DWIDTH 6 0
BBX 6 7 0 0
BITMAP
2A40
BEE0
FAE0
EBE0
FAA0
FFE0
7F90
ENDCHAR
STARTCHAR Agrave
ENCODING 192
SWIDTH 578 0
DWIDTH 6 0
BBX 6 10 0 0
BITMAP
0400
3A00
2B00
2F40
A6A0
EAA0
EA60
EFA0
FFE0
7F90
ENDCHAR
STARTCHAR Aacute
ENCODING 193
SWIDTH 578 0
DWIDTH 6 0
BBX 6 10 0 0
BITMAP
0100
0A80
0E80
2F80
A6A0
EAA0
EA60
EFA0
FFE0
7F90
ENDCHAR
STARTCHAR Acircumflex
ENCODING 194
SWIDTH 578 0
DWIDTH 6 0
BBX 6 10 0 0
BITMAP
0500
1A40
2A80
3FC0
A6A0
EAA0
EA60
EFA0
FFE0
7F90
ENDCHAR
STARTCHAR Atilde
ENCODING 195
SWIDTH 578 0
DWIDTH 6 0
BBX 6 9 0 0
BITMAP
2F80
3AC0
3FC0
A6A0
EAA0
EA60
EFA0
FFE0
7F90
ENDCHAR
STARTCHAR Adieresis
ENCODING 196
SWIDTH 578 0
DWIDTH 6 0
BBX 6 9 0 0
BITMAP
1A40
3AC0
3FC0
A6A0
EAA0
EA60
EFA0
FFE0
7F90
ENDCHAR
STARTCHAR Aring
ENCODING 197
SWIDTH 578 0
DWIDTH 6 0
BBX 6 9 0 0
BITMAP
1F40
2A80
3FC0
A6A0
EAA0
EA60
EFA0
FFE0
7F90
ENDCHAR
STARTCHAR AE
ENCODING 198
SWIDTH 578 0
DWIDTH 6 0
BBX 6 7 0 0
BITMAP
2540
AAE0
D9A0
D6E0
E9A0
FFE0
7F90
ENDCHAR
STARTCHAR Ccedilla
ENCODING 199
SWIDTH 578 0
DWIDTH 6 0
BBX 6 7 0 0
BITMAP
2540
AAE0
EFE0
EFE0
E5E0
F7E0
7B90
ENDCHAR
STARTCHAR Egrave
ENCODING 200
SWIDTH 578 0
DWIDTH 6 0
BBX 6 10 0 0
BITMAP
0400
3A00
2B00
2F40
B6E0
F6E0
FBE0
F5A0
FFE0
7F90
ENDCHAR
STARTCHAR Eacute
ENCODING 201
SWIDTH 578 0
DWIDTH 6 0
BBX 6 10 0 0
BITMAP
0100
0AC0
0E80
2F80
B6E0
F6E0
FBE0
F5A0
FFE0
7F90
ENDCHAR
STARTCHAR Ecircumflex
ENCODING 202
SWIDTH 578 0
DWIDTH 6 0
BBX 6 10 0 0
BITMAP
0500
0E40
2A80
3FC0
B6E0
F6E0
FBE0
F5A0
FFE0
7F90
ENDCHAR
STARTCHAR Edieresis
ENCODING 203
SWIDTH 578 0
DWIDTH 6 0
BBX 6 9 0 0
BITMAP
1A40
2AC0
3FC0
B6E0
F6E0
FBE0
F5A0
FFE0
7F90
ENDCHAR
STARTCHAR Igrave
ENCODING 204
SWIDTH 578 0
DWIDTH 6 0
BBX 6 10 0 0
BITMAP
0400
3A00
2B00
2F40
B9E0
FEE0
FEE0
F5A0
FFE0
7F90
ENDCHAR
STARTCHAR Iacute
ENCODING 205
SWIDTH 578 0
DWIDTH 6 0
BBX 6 10 0 0
BITMAP
0100
0AC0
0E80
2F40
B9E0
FEE0
FEE0
F5A0
FFE0
7F90
ENDCHAR
STARTCHAR Icircumflex
ENCODING 206
SWIDTH 578 0
DWIDTH 6 0
BBX 6 10 0 0
BITMAP
0500
0E40
2A80
3FC0
B9E0
FEE0
FEE0
F5A0
FFE0
7F90
ENDCHAR
STARTCHAR Idieresis
ENCODING 207
SWIDTH 578 0
DWIDTH 6 0
BBX 6 9 0 0
BITMAP
1A40
2AC0
3FC0
B9E0
FEE0
FEE0
F5A0
FFE0
7F90
ENDCHAR
STARTCHAR Eth
ENCODING 208
SWIDTH 578 0
DWIDTH 6 0
BBX 6 7 0 0
BITMAP
1540
AA60
DB60
EF60
E5A0
FFE0
7F90
ENDCHAR
STARTCHAR Ntilde
ENCODING 209
SWIDTH 578 0
DWIDTH 6 0
BBX 6 9 0 0
BITMAP
2F80
3AC0
3FC0
AA60
EF60
EF60
EFA0
FFE0
7F90
ENDCHAR
STARTCHAR Ograve
ENCODING 210
SWIDTH 578 0
DWIDTH 6 0
BBX 6 10 0 0
BITMAP
0400
3A00
2B00
2F40
AA60
EF60
EF60
E5A0
FFE0
7F90
ENDCHAR
STARTCHAR Oacute
ENCODING 211
SWIDTH 578 0
DWIDTH 6 0
BBX 6 10 0 0
BITMAP
0100
0AC0
0E80
2F80
AA60
EF60
EF60
E5A0
FFE0
7F90
ENDCHAR
STARTCHAR Ocircumflex
ENCODING 212
SWIDTH 578 0
DWIDTH 6 0
BBX 6 10 0 0
BITMAP
0500
1E40
2A80
3FC0
AA60
EF60
EF60
E5A0
FFE0
7F90
ENDCHAR
STARTCHAR Otilde
ENCODING 213
SWIDTH 578 0
DWIDTH 6 0
BBX 6 9 0 0
BITMAP
2F80
3AD0
3FC0
AA60
EF60
EF60
E5A0
FFE0
7F90
ENDCHAR
STARTCHAR Odieresis
ENCODING 214
SWIDTH 578 0
DWIDTH 6 0
BBX 6 9 0 0
BITMAP
1A40
2AC0
3FC0
AA60
EF60
EF60
E5A0
FFE0
7F90
ENDCHAR
STARTCHAR multiply
ENCODING 215
SWIDTH 578 0
DWIDTH 6 0
BBX 6 7 0 0
BITMAP
2A40
BFE0
F9E0
FAE0
FFE0
FFE0
7F90
ENDCHAR
STARTCHAR Oslash
ENCODING 216
SWIDTH 578 0
DWIDTH 6 0
BBX 6 7 0 0
BITMAP
2540
A960
EE60
E760
E5A0
FFE0
7F90
ENDCHAR
STARTCHAR Ugrave
ENCODING 217
SWIDTH 578 0
DWIDTH 6 0
BBX 6 10 0 0
BITMAP
0400
3A00
2B00
2F40
AF60
EF60
EF60
E5A0
FFE0
7F90
ENDCHAR
STARTCHAR Uacute
ENCODING 218
SWIDTH 578 0
DWIDTH 6 0
BBX 6 10 0 0
BITMAP
0100
0AC0
0E80
1F40
AF60
EF60
EF60
E5A0
FFE0
7F90
ENDCHAR
STARTCHAR Ucircumflex
ENCODING 219
SWIDTH 578 0
DWIDTH 6 0
BBX 6 10 0 0
BITMAP
0500
0E40
2A80
3FC0
AF60
EF60
EF60
E5A0
FFE0
7F90
ENDCHAR
STARTCHAR Udieresis
ENCODING 220
SWIDTH 578 0
DWIDTH 6 0
BBX 6 9 0 0
BITMAP
1A40
2AC0
3FC0
AF60
EF60
EF60
E5A0
FFE0
7F90
ENDCHAR
STARTCHAR Yacute
ENCODING 221
SWIDTH 578 0
DWIDTH 6 0
BBX 6 10 0 0
BITMAP
0100
0AC0
0E80
2F40
B6A0
F5E0
FAE0
FEE0
FFE0
7F90
ENDCHAR
STARTCHAR Thorn
ENCODING 222
SWIDTH 578 0
DWIDTH 6 0
BBX 6 7 0 0
BITMAP
2A40
B5A0
FB60
F5A0
FBE0
FFE0
7F90
ENDCHAR
STARTCHAR germandbls
ENCODING 223
SWIDTH 578 0
DWIDTH 6 0
BBX 6 7 0 0
BITMAP
2540
AAA0
EEA0
EF60
E9A0
FFE0
7F90
ENDCHAR
STARTCHAR agrave
ENCODING 224
SWIDTH 578 0
DWIDTH 6 0
BBX 6 10 0 0
BITMAP
0400
3A00
2B00
2F80
BAA0
FAA0
DAA0
E5A0
FFE0
7F90
ENDCHAR
STARTCHAR aacute
ENCODING 225
SWIDTH 578 0
DWIDTH 6 0
BBX 6 10 0 0
BITMAP
0100
0AC0
0E80
2F80
BAA0
FAA0
DAA0
E5A0
FFE0
7F90
ENDCHAR
STARTCHAR acircumflex
ENCODING 226
SWIDTH 578 0
DWIDTH 6 0
BBX 6 10 0 0
BITMAP
0500
1E40
2A80
3FC0
BAA0
FAA0
DAA0
E5A0
FFE0
7F90
ENDCHAR
STARTCHAR atilde
ENCODING 227
SWIDTH 578 0
DWIDTH 6 0
BBX 6 9 0 0
BITMAP
2F80
3AD0
3FC0
BAA0
FAA0
DAA0
E5A0
FFE0
7F90
ENDCHAR
STARTCHAR adieresis
ENCODING 228
SWIDTH 578 0
DWIDTH 6 0
BBX 6 9 0 0
BITMAP
1A40
2AC0
3FC0
BAA0
FAA0
DAA0
E5A0
FFE0
7F90
ENDCHAR
STARTCHAR aring
ENCODING 229
SWIDTH 578 0
DWIDTH 6 0
BBX 6 9 0 0
BITMAP
1F40
29C0
3FC0
BAA0
FAA0
DAA0
E5A0
FFE0
7F90
ENDCHAR
STARTCHAR ae
ENCODING 230
SWIDTH 578 0
DWIDTH 6 0
BBX 6 7 0 0
BITMAP
2540
AAE0
D9A0
D6E0
E9A0
FFE0
7F90
ENDCHAR
STARTCHAR ccedilla
ENCODING 231
SWIDTH 578 0
DWIDTH 6 0
BBX 6 7 0 0
BITMAP
2540
AAE0
EFE0
EFE0
E5E0
F7E0
7B90
ENDCHAR
STARTCHAR egrave
ENCODING 232
SWIDTH 578 0
DWIDTH 6 0
BBX 6 10 0 0
BITMAP
0400
3A00
2B00
2F80
AAA0
D5A0
DFE0
E5E0
FFE0
7F90
ENDCHAR
STARTCHAR eacute
ENCODING 233
SWIDTH 578 0
DWIDTH 6 0
BBX 6 10 0 0
BITMAP
0100
0E80
0E80
2F80
AAA0
D5A0
DFE0
E5E0
FFE0
7F90
ENDCHAR
STARTCHAR ecircumflex
ENCODING 234
SWIDTH 578 0
DWIDTH 6 0
BBX 6 10 0 0
BITMAP
0500
1B40
2A80
3FC0
AAA0
D5A0
DFE0
E5E0
FFE0
7F90
ENDCHAR
STARTCHAR edieresis
ENCODING 235
SWIDTH 578 0
DWIDTH 6 0
BBX 6 9 0 0
BITMAP
1A40
3A80
3FC0
AAA0
D5A0
DFE0
E5E0
FFE0
7F90
ENDCHAR
STARTCHAR igrave
ENCODING 236
SWIDTH 578 0
DWIDTH 6 0
BBX 6 10 0 0
BITMAP
0400
3A00
2B00
2F40
B9E0
FEE0
FEE0
F5A0
FFE0
7F90
ENDCHAR
STARTCHAR iacute
ENCODING 237
SWIDTH 578 0
DWIDTH 6 0
BBX 6 10 0 0
BITMAP
0100
0AC0
0E80
2F40
B9E0
FEE0
FEE0
F5A0
FFE0
7F90
ENDCHAR
STARTCHAR icircumflex
ENCODING 238
SWIDTH 578 0
DWIDTH 6 0
BBX 6 10 0 0
BITMAP
0500
0E40
2A80
3FC0
B9E0
FEE0
FEE0
F5A0
FFE0
7F90
ENDCHAR
STARTCHAR idieresis
ENCODING 239
SWIDTH 578 0
DWIDTH 6 0
BBX 6 9 0 0
BITMAP
1A40
2AC0
3FC0
B9E0
FEE0
FEE0
F5A0
FFE0
7F90
ENDCHAR
STARTCHAR eth
ENCODING 240
SWIDTH 578 0
DWIDTH 6 0
BBX 6 7 0 0
BITMAP
1540
AA60
DB60
EF60
E5A0
FFE0
7F90
ENDCHAR
STARTCHAR ntilde
ENCODING 241
SWIDTH 578 0
DWIDTH 6 0
BBX 6 9 0 0
BITMAP
2F80
3AC0
3FC0
AA60
EF60
EF60
EFA0
FFE0
7F90
ENDCHAR
STARTCHAR oacute
ENCODING 243
SWIDTH 578 0
DWIDTH 6 0
BBX 6 10 0 0
BITMAP
0100
0A80
0E80
2F40
AA60
EF60
EF60
E5A0
FFE0
7F90
ENDCHAR
STARTCHAR ocircumflex
ENCODING 244
SWIDTH 578 0
DWIDTH 6 0
BBX 6 10 0 0
BITMAP
0500
1E40
2A80
3FC0
AA60
EF60
EF60
E5A0
FFE0
7F90
ENDCHAR
STARTCHAR otilde
ENCODING 245
SWIDTH 578 0
DWIDTH 6 0
BBX 6 9 0 0
BITMAP
2F80
3AD0
3FC0
AA60
EF60
EF60
E5A0
FFE0
7F90
ENDCHAR
STARTCHAR odieresis
ENCODING 246
SWIDTH 578 0
DWIDTH 6 0
BBX 6 9 0 0
BITMAP
1A40
2AC0
3FC0
AA60
EF60
EF60
E5A0
FFE0
7F90
ENDCHAR
STARTCHAR divide
ENCODING 247
SWIDTH 428 0
DWIDTH 4 0
BBX 5 7 0 0
BITMAP
2900
BB00
E740
FB40
FF40
FF40
7E00
ENDCHAR
STARTCHAR oslash
ENCODING 248
SWIDTH 578 0
DWIDTH 6 0
BBX 6 7 0 0
BITMAP
2540
A960
EE60
E760
E5A0
FFE0
7F90
ENDCHAR
STARTCHAR ugrave
ENCODING 249
SWIDTH 578 0
DWIDTH 6 0
BBX 6 10 0 0
BITMAP
0400
3A00
2B00
2F40
AF60
EF60
EF60
E5A0
FFE0
7F90
ENDCHAR
STARTCHAR uacute
ENCODING 250
SWIDTH 578 0
DWIDTH 6 0
BBX 6 10 0 0
BITMAP
0100
0AC0
0E80
1F40
AF60
EF60
EF60
E5A0
FFE0
7F90
ENDCHAR
STARTCHAR ucircumflex
ENCODING 251
SWIDTH 578 0
DWIDTH 6 0
BBX 6 10 0 0
BITMAP
0500
0E40
2A80
3FC0
AF60
EF60
EF60
E5A0
FFE0
7F90
ENDCHAR
STARTCHAR udieresis
ENCODING 252
SWIDTH 578 0
DWIDTH 6 0
BBX 6 9 0 0
BITMAP
1A40
2AC0
3FC0
AF60
EF60
EF60
E5A0
FFE0
7F90
ENDCHAR
STARTCHAR yacute
ENCODING 253
SWIDTH 578 0
DWIDTH 6 0
BBX 6 10 0 0
BITMAP
0100
0AC0
0E80
2F40
B6A0
F5E0
FAE0
FEE0
FFE0
7F90
ENDCHAR
STARTCHAR thorn
ENCODING 254
SWIDTH 578 0
DWIDTH 6 0
BBX 6 7 0 0
BITMAP
2A40
B5A0
FB60
F5A0
FBE0
FFE0
7F90
ENDCHAR
STARTCHAR ydieresis
ENCODING 255
SWIDTH 578 0
DWIDTH 6 0
BBX 6 9 0 0
BITMAP
1A40
2AC0
3FC0
B6A0
F5E0
FAE0
FEE0
FFE0
7F90
ENDCHAR
STARTCHAR Amacron
ENCODING 256
SWIDTH 578 0
DWIDTH 6 0
BBX 6 9 0 0
BITMAP
1F40
3AC0
3FC0
A6A0
EAA0
EA60
EFA0
FFE0
7F90
ENDCHAR
STARTCHAR amacron
ENCODING 257
SWIDTH 578 0
DWIDTH 6 0
BBX 6 9 0 0
BITMAP
1B80
39D0
3FC0
BAA0
FAA0
DAA0
E5A0
FFE0
7F90
ENDCHAR
STARTCHAR Abreve
ENCODING 258
SWIDTH 578 0
DWIDTH 6 0
BBX 6 9 0 0
BITMAP
1F40
3AC0
3FC0
A6A0
EAA0
EA60
EFA0
FFE0
7F90
ENDCHAR
STARTCHAR abreve
ENCODING 259
SWIDTH 578 0
DWIDTH 6 0
BBX 6 9 0 0
BITMAP
1B80
3AD0
3FC0
BAA0
FAA0
DAA0
E5A0
FFE0
7F90
ENDCHAR
STARTCHAR Aogonek
ENCODING 260
SWIDTH 578 0
DWIDTH 6 0
BBX 6 7 0 0
BITMAP
2540
A6A0
EAA0
EA60
EF60
FEA0
7F90
ENDCHAR
STARTCHAR aogonek
ENCODING 261
SWIDTH 578 0
DWIDTH 6 0
BBX 6 7 0 0
BITMAP
2540
BAA0
FAA0
DAA0
E5A0
FBE0
7F90
ENDCHAR
STARTCHAR Cacute
ENCODING 262
SWIDTH 578 0
DWIDTH 6 0
BBX 6 10 0 0
BITMAP
0100
0AC0
0E80
2F80
AAE0
EFE0
EFE0
E5E0
FFE0
7F90
ENDCHAR
STARTCHAR cacute
ENCODING 263
SWIDTH 578 0
DWIDTH 6 0
BBX 6 10 0 0
BITMAP
0100
0AC0
0E80
2F80
AAE0
EFE0
EFE0
E5E0
FFE0
7F90
ENDCHAR
STARTCHAR Ccircumflex
ENCODING 264
SWIDTH 578 0
DWIDTH 6 0
BBX 6 10 0 0
BITMAP
0500
1E40
2A80
3FC0
AAE0
EFE0
EFE0
E5E0
FFE0
7F90
ENDCHAR
STARTCHAR ccircumflex
ENCODING 265
SWIDTH 578 0
DWIDTH 6 0
BBX 6 10 0 0
BITMAP
0500
1A40
2A80
3FC0
AAE0
EFE0
EFE0
E5E0
FFE0
7F90
ENDCHAR
STARTCHAR Cdotaccent
ENCODING 266
SWIDTH 578 0
DWIDTH 6 0
BBX 6 9 0 0
BITMAP
2E40
7BC0
7FC0
AAE0
EFE0
EFE0
E5E0
FFE0
7F90
ENDCHAR
STARTCHAR cdotaccent
ENCODING 267
SWIDTH 578 0
DWIDTH 6 0
BBX 6 9 0 0
BITMAP
2E40
7BC0
7FC0
AAE0
EFE0
EFE0
E5E0
FFE0
7F90
ENDCHAR
STARTCHAR Ccaron
ENCODING 268
SWIDTH 578 0
DWIDTH 6 0
BBX 6 10 0 0
BITMAP
0100
3F80
2A40
3F80
AAE0
EFE0
EFE0
E5E0
FFE0
7F90
ENDCHAR
STARTCHAR ccaron
ENCODING 269
SWIDTH 578 0
DWIDTH 6 0
BBX 6 10 0 0
BITMAP
0500
2F80
2A80
3F80
AAE0
EFE0
EFE0
E5E0
FFE0
7F90
ENDCHAR
STARTCHAR Dcaron
ENCODING 270
SWIDTH 578 0
DWIDTH 6 0
BBX 6 10 0 0
BITMAP
0500
3F80
2A80
3F80
AA60
EF60
EF60
E5A0
FFE0
7F90
ENDCHAR
STARTCHAR dcaron
ENCODING 271
SWIDTH 578 0
DWIDTH 6 0
BBX 6 7 0 0
BITMAP
1640
9960
EEE0
EEE0
D5E0
FFE0
7F90
ENDCHAR
STARTCHAR Dcroat
ENCODING 272
SWIDTH 578 0
DWIDTH 6 0
BBX 6 7 0 0
BITMAP
1540
AA60
DB60
EF60
E5A0
FFE0
7F90
ENDCHAR
STARTCHAR dcroat
ENCODING 273
SWIDTH 578 0
DWIDTH 6 0
BBX 6 7 0 0
BITMAP
1540
AA60
DB60
EF60
E5A0
FFE0
7F90
ENDCHAR
STARTCHAR Emacron
ENCODING 274
SWIDTH 578 0
DWIDTH 6 0
BBX 6 9 0 0
BITMAP
1B80
39D0
3FC0
B6E0
F6E0
FBE0
F5A0
FFE0
7F90
ENDCHAR
STARTCHAR emacron
ENCODING 275
SWIDTH 578 0
DWIDTH 6 0
BBX 6 9 0 0
BITMAP
2E40
76C0
7FC0
AAA0
D5A0
DFE0
E5E0
FFE0
7F90
ENDCHAR
STARTCHAR Ebreve
ENCODING 276
SWIDTH 578 0
DWIDTH 6 0
BBX 6 9 0 0
BITMAP
1B80
3AD0
3FC0
B6E0
F6E0
FBE0
F5A0
FFE0
7F90
ENDCHAR
STARTCHAR ebreve
ENCODING 277
SWIDTH 578 0
DWIDTH 6 0
BBX 6 9 0 0
BITMAP
2E40
7AC0
7FC0
AAA0
D5A0
DFE0
E5E0
FFE0
7F90
ENDCHAR
STARTCHAR Edotaccent
ENCODING 278
SWIDTH 578 0
DWIDTH 6 0
BBX 6 9 0 0
BITMAP
1B80
3ED0
3FC0
B6E0
F6E0
FBE0
F5A0
FFE0
7F90
ENDCHAR
STARTCHAR edotaccent
ENCODING 279
SWIDTH 578 0
DWIDTH 6 0
BBX 6 9 0 0
BITMAP
2E40
7BC0
7FC0
AAA0
D5A0
DFE0
E5E0
FFE0
7F90
ENDCHAR
STARTCHAR Eogonek
ENCODING 280
SWIDTH 578 0
DWIDTH 6 0
BBX 6 7 0 0
BITMAP
2540
B6E0
F6E0
FBE0
F5A0
FEE0
7F90
ENDCHAR
STARTCHAR eogonek
ENCODING 281
SWIDTH 578 0
DWIDTH 6 0
BBX 6 7 0 0
BITMAP
2540
AAA0
D5A0
DFE0
E5E0
FAE0
7F90
ENDCHAR
STARTCHAR Ecaron
ENCODING 282
SWIDTH 578 0
DWIDTH 6 0
BBX 6 10 0 0
BITMAP
0400
2FC0
1A80
2F80
B6E0
F6E0
FBE0
F5A0
FFE0
7F90
ENDCHAR
STARTCHAR ecaron
ENCODING 283
SWIDTH 578 0
DWIDTH 6 0
BBX 6 10 0 0
BITMAP
0500
3F80
2A80
3F80
AAA0
D5A0
DFE0
E5E0
FFE0
7F90
ENDCHAR
STARTCHAR Gcircumflex
ENCODING 284
SWIDTH 578 0
DWIDTH 6 0
BBX 6 10 0 0
BITMAP
0500
1A40
2A80
3FC0
AAE0
EAA0
EA60
F5A0
FFE0
7F90
ENDCHAR
STARTCHAR gcircumflex
ENCODING 285
SWIDTH 578 0
DWIDTH 6 0
BBX 6 10 0 0
BITMAP
0500
1A40
2A80
3FC0
AAE0
EAA0
EA60
F5A0
FFE0
7F90
ENDCHAR
STARTCHAR Gbreve
ENCODING 286
SWIDTH 578 0
DWIDTH 6 0
BBX 6 9 0 0
BITMAP
1F40
3AC0
3FC0
AAE0
EAA0
EA60
F5A0
FFE0
7F90
ENDCHAR
STARTCHAR gbreve
ENCODING 287
SWIDTH 578 0
DWIDTH 6 0
BBX 6 9 0 0
BITMAP
2E40
7AC0
7FC0
AAE0
EAA0
EA60
F5A0
FFE0
7F90
ENDCHAR
STARTCHAR Gdotaccent
ENCODING 288
SWIDTH 578 0
DWIDTH 6 0
BBX 6 9 0 0
BITMAP
2E40
7BC0
7FC0
AAE0
EAA0
EA60
F5A0
FFE0
7F90
ENDCHAR
STARTCHAR gdotaccent
ENCODING 289
SWIDTH 578 0
DWIDTH 6 0
BBX 6 9 0 0
BITMAP
2E40
7BC0
7FC0
AAE0
EAA0
EA60
F5A0
FFE0
7F90
ENDCHAR
STARTCHAR Gcommaaccent
ENCODING 290
SWIDTH 578 0
DWIDTH 6 0
BBX 6 7 0 0
BITMAP
2540
AAE0
EAA0
EA60
F5A0
FEE0
7F90
ENDCHAR
STARTCHAR gcommaaccent
ENCODING 291
SWIDTH 578 0
DWIDTH 6 0
BBX 6 7 0 0
BITMAP
2540
AAE0
EAA0
EA60
F5A0
FEE0
7F90
ENDCHAR
STARTCHAR Hcircumflex
ENCODING 292
SWIDTH 578 0
DWIDTH 6 0
BBX 6 10 0 0
BITMAP
0500
1A40
2A80
3FC0
AFA0
E560
EFA0
EFA0
FFE0
7F90
ENDCHAR
STARTCHAR hcircumflex
ENCODING 293
SWIDTH 578 0
DWIDTH 6 0
BBX 6 10 0 0
BITMAP
0500
1E40
2A80
3FC0
AFA0
E560
EFA0
EFA0
FFE0
7F90
ENDCHAR
STARTCHAR Hbar
ENCODING 294
SWIDTH 578 0
DWIDTH 6 0
BBX 6 9 0 0
BITMAP
1F40
36C0
3FC0
AFA0
E560
EFA0
EFA0
FFE0
7F90
ENDCHAR
STARTCHAR hbar
ENCODING 295
SWIDTH 578 0
DWIDTH 6 0
BBX 6 7 0 0
BITMAP
1A40
A660
E560
EFA0
EFA0
FFE0
7F90
ENDCHAR
STARTCHAR Itilde
ENCODING 296
SWIDTH 578 0
DWIDTH 6 0
BBX 6 9 0 0
BITMAP
1F80
3AD0
3FC0
B9E0
FEE0
FEE0
F5A0
FFE0
7F90
ENDCHAR
STARTCHAR itilde
ENCODING 297
SWIDTH 578 0
DWIDTH 6 0
BBX 6 9 0 0
BITMAP
2F80
3AD0
3FC0
B9E0
FEE0
FEE0
F5A0
FFE0
7F90
ENDCHAR
STARTCHAR Imacron
ENCODING 298
SWIDTH 578 0
DWIDTH 6 0
BBX 6 9 0 0
BITMAP
1B80
39D0
3FC0
B9E0
FEE0
FEE0
F5A0
FFE0
7F90
ENDCHAR
STARTCHAR imacron
ENCODING 299
SWIDTH 578 0
DWIDTH 6 0
BBX 6 9 0 0
BITMAP
1F80
3AD0
3FC0
B9E0
FEE0
FEE0
F5A0
FFE0
7F90
ENDCHAR
STARTCHAR Ibreve
ENCODING 300
SWIDTH 578 0
DWIDTH 6 0
BBX 6 9 0 0
BITMAP
1B80
3AD0
3FC0
B9E0
FEE0
FEE0
F5A0
FFE0
7F90
ENDCHAR
STARTCHAR ibreve
ENCODING 301
SWIDTH 578 0
DWIDTH 6 0
BBX 6 9 0 0
BITMAP
1B80
3AD0
3FC0
B9E0
FEE0
FEE0
F5A0
FFE0
7F90
ENDCHAR
STARTCHAR Iogonek
ENCODING 302
SWIDTH 578 0
DWIDTH 6 0
BBX 6 7 0 0
BITMAP
2540
B9E0
FEE0
FEE0
F5A0
FEE0
7F90
ENDCHAR
STARTCHAR iogonek
ENCODING 303
SWIDTH 578 0
DWIDTH 6 0
BBX 6 7 0 0
BITMAP
2540
B9E0
FEE0
FEE0
F5A0
FEE0
7F90
ENDCHAR
STARTCHAR Idotaccent
ENCODING 304
SWIDTH 578 0
DWIDTH 6 0
BBX 6 9 0 0
BITMAP
1F40
3BC0
3FC0
B9E0
FEE0
FEE0
F5A0
FFE0
7F90
ENDCHAR
STARTCHAR dotlessi
ENCODING 305
SWIDTH 578 0
DWIDTH 6 0
BBX 6 7 0 0
BITMAP
2540
B9E0
FEE0
FEE0
F5A0
FFE0
7F90
ENDCHAR
STARTCHAR IJ
ENCODING 306
SWIDTH 578 0
DWIDTH 6 0
BBX 6 7 0 0
BITMAP
1640
9B60
EF60
EF60
D6A0
FFE0
7F90
ENDCHAR
STARTCHAR ij
ENCODING 307
SWIDTH 578 0
DWIDTH 6 0
BBX 6 7 0 0
BITMAP
1640
9B60
EF60
EF60
D6A0
FFE0
7F90
ENDCHAR
STARTCHAR Jcircumflex
ENCODING 308
SWIDTH 578 0
DWIDTH 6 0
BBX 6 10 0 0
BITMAP
0500
1E40
2A80
3FC0
BDE0
FDE0
FDE0
FAE0
FFE0
7F90
ENDCHAR
STARTCHAR jcircumflex
ENCODING 309
SWIDTH 578 0
DWIDTH 6 0
BBX 6 10 0 0
BITMAP
0500
1E40
2A80
3FC0
BDE0
FDE0
FDE0
FAE0
FFE0
7F90
ENDCHAR
STARTCHAR Kcommaaccent
ENCODING 310
SWIDTH 578 0
DWIDTH 6 0
BBX 6 7 0 0
BITMAP
2A40
B6A0
F6E0
F5E0
FBA0
FEE0
7F90
ENDCHAR
STARTCHAR kcommaaccent
ENCODING 311
SWIDTH 578 0
DWIDTH 6 0
BBX 6 7 0 0
BITMAP
2A40
B6A0
F6E0
F5E0
FBA0
FEE0
7F90
ENDCHAR
STARTCHAR kgreenlandic
ENCODING 312
SWIDTH 578 0
DWIDTH 6 0
BBX 6 7 0 0
BITMAP
2A40
B6A0
F6E0
F5E0
FBA0
FFE0
7F90
ENDCHAR
STARTCHAR Lacute
ENCODING 313
SWIDTH 578 0
DWIDTH 6 0
BBX 6 10 0 0
BITMAP
0500
1F40
2B00
3F40
B7E0
F7E0
F7E0
F5E0
FFE0
7F90
ENDCHAR
STARTCHAR lacute
ENCODING 314
SWIDTH 578 0
DWIDTH 6 0
BBX 6 10 0 0
BITMAP
0500
1F40
2B00
3F40
B7E0
F7E0
F7E0
F5E0
FFE0
7F90
ENDCHAR
STARTCHAR Lcommaaccent
ENCODING 315
SWIDTH 578 0
DWIDTH 6 0
BBX 6 7 0 0
BITMAP
2A40
B7E0
F7E0
F7E0
F5E0
FEE0
7F90
ENDCHAR
STARTCHAR lcommaaccent
ENCODING 316
SWIDTH 578 0
DWIDTH 6 0
BBX 6 7 0 0
BITMAP
2A40
B7E0
F7E0
F7E0
F5E0
FEE0
7F90
ENDCHAR
STARTCHAR Lcaron
ENCODING 317
SWIDTH 578 0
DWIDTH 6 0
BBX 6 7 0 0
BITMAP
2A40
B6E0
F7E0
F7E0
F5E0
FFE0
7F90
ENDCHAR
STARTCHAR lcaron
ENCODING 318
SWIDTH 578 0
DWIDTH 6 0
BBX 6 7 0 0
BITMAP
2A40
B6E0
F7E0
F7E0
F5E0
FFE0
7F90
ENDCHAR
STARTCHAR Ldot
ENCODING 319
SWIDTH 578 0
DWIDTH 6 0
BBX 6 7 0 0
BITMAP
2A40
B7E0
F6E0
F7E0
F5E0
FFE0
7F90
ENDCHAR
STARTCHAR ldot
ENCODING 320
SWIDTH 578 0
DWIDTH 6 0
BBX 6 7 0 0
BITMAP
2A40
B7E0
F6E0
F7E0
F5E0
FFE0
7F90
ENDCHAR
STARTCHAR Lslash
ENCODING 321
SWIDTH 578 0
DWIDTH 6 0
BBX 6 7 0 0
BITMAP
2A40
B7E0
F7E0
F7E0
F5E0
FFE0
7F90
ENDCHAR
STARTCHAR lslash
ENCODING 322
SWIDTH 578 0
DWIDTH 6 0
BBX 6 7 0 0
BITMAP
2A40
B7E0
F7E0
F7E0
F5E0
FFE0
7F90
ENDCHAR
STARTCHAR Nacute
ENCODING 323
SWIDTH 578 0
DWIDTH 6 0
BBX 6 10 0 0
BITMAP
0100
0E80
0E80
2F40
AA60
EF60
EF60
EFA0
FFE0
7F90
ENDCHAR
STARTCHAR nacute
ENCODING 324
SWIDTH 578 0
DWIDTH 6 0
BBX 6 10 0 0
BITMAP
0100
0E80
0E80
2F40
AA60
EF60
EF60
EFA0
FFE0
7F90
ENDCHAR
STARTCHAR Ncommaaccent
ENCODING 325
SWIDTH 578 0
DWIDTH 6 0
BBX 6 7 0 0
BITMAP
1540
AA60
EF60
EF60
EFA0
FEE0
7F90
ENDCHAR
STARTCHAR ncommaaccent
ENCODING 326
SWIDTH 578 0
DWIDTH 6 0
BBX 6 7 0 0
BITMAP
1540
AA60
EF60
EF60
EFA0
FEE0
7F90
ENDCHAR
STARTCHAR Ncaron
ENCODING 327
SWIDTH 578 0
DWIDTH 6 0
BBX 6 10 0 0
BITMAP
0500
3F80
2A80
3F80
AA60
EF60
EF60
EFA0
FFE0
7F90
ENDCHAR
STARTCHAR ncaron
ENCODING 328
SWIDTH 578 0
DWIDTH 6 0
BBX 6 10 0 0
BITMAP
0500
3F80
2A80
3F80
AA60
EF60
EF60
EFA0
FFE0
7F90
ENDCHAR
STARTCHAR napostrophe
ENCODING 329
SWIDTH 578 0
DWIDTH 6 0
BBX 6 7 0 0
BITMAP
1540
5A60
EF60
EF60
EFA0
FFE0
7F90
ENDCHAR
STARTCHAR Eng
ENCODING 330
SWIDTH 578 0
DWIDTH 6 0
BBX 6 7 0 0
BITMAP
1540
AA60
EF60
EF60
EF60
FE60
7E90
ENDCHAR
STARTCHAR eng
ENCODING 331
SWIDTH 578 0
DWIDTH 6 0
BBX 6 7 0 0
BITMAP
1540
AA60
EF60
EF60
EF60
FE60
7E90
ENDCHAR
STARTCHAR Omacron
ENCODING 332
SWIDTH 578 0
DWIDTH 6 0
BBX 6 9 0 0
BITMAP
1B80
39D0
3FC0
AA60
EF60
EF60
E5A0
FFE0
7F90
ENDCHAR
STARTCHAR omacron
ENCODING 333
SWIDTH 578 0
DWIDTH 6 0
BBX 6 9 0 0
BITMAP
1B80
39D0
3FC0
AA60
EF60
EF60
E5A0
FFE0
7F90
ENDCHAR
STARTCHAR Obreve
ENCODING 334
SWIDTH 578 0
DWIDTH 6 0
BBX 6 9 0 0
BITMAP
1B80
3AD0
3FC0
AA60
EF60
EF60
E5A0
FFE0
7F90
ENDCHAR
STARTCHAR obreve
ENCODING 335
SWIDTH 578 0
DWIDTH 6 0
BBX 6 9 0 0
BITMAP
1B80
3AD0
3FC0
AA60
EF60
EF60
E5A0
FFE0
7F90
ENDCHAR
STARTCHAR Ohungarumlaut
ENCODING 336
SWIDTH 578 0
DWIDTH 6 0
BBX 6 10 0 0
BITMAP
0140
0AA0
1E90
3FC0
AA60
EF60
EF60
E5A0
FFE0
7F90
ENDCHAR
STARTCHAR ohungarumlaut
ENCODING 337
SWIDTH 578 0
DWIDTH 6 0
BBX 6 10 0 0
BITMAP
0140
0AA0
1E90
3FC0
AA60
EF60
EF60
E5A0
FFE0
7F90
ENDCHAR
STARTCHAR OE
ENCODING 338
SWIDTH 578 0
DWIDTH 6 0
BBX 6 7 0 0
BITMAP
1540
99A0
DDA0
DEE0
D5A0
FFE0
7F90
ENDCHAR
STARTCHAR oe
ENCODING 339
SWIDTH 578 0
DWIDTH 6 0
BBX 6 7 0 0
BITMAP
1540
99A0
DDA0
DEE0
D5A0
FFE0
7F90
ENDCHAR
STARTCHAR Racute
ENCODING 340
SWIDTH 578 0
DWIDTH 6 0
BBX 6 10 0 0
BITMAP
0100
0E80
0E80
2F80
AAA0
EAA0
EAA0
EFA0
FFE0
7F90
ENDCHAR
STARTCHAR racute
ENCODING 341
SWIDTH 578 0
DWIDTH 6 0
BBX 6 10 0 0
BITMAP
0100
0E80
0E80
2F80
AAA0
EAA0
EAA0
EFA0
FFE0
7F90
ENDCHAR
STARTCHAR Rcommaaccent
ENCODING 342
SWIDTH 578 0
DWIDTH 6 0
BBX 6 7 0 0
BITMAP
1540
AAA0
EAA0
EAA0
EFA0
FEE0
7F90
ENDCHAR
STARTCHAR rcommaaccent
ENCODING 343
SWIDTH 578 0
DWIDTH 6 0
BBX 6 7 0 0
BITMAP
1540
AAA0
EAA0
EAA0
EFA0
FEE0
7F90
ENDCHAR
STARTCHAR Rcaron
ENCODING 344
SWIDTH 578 0
DWIDTH 6 0
BBX 6 10 0 0
BITMAP
0500
3F80
2A80
3F80
AAA0
EAA0
EAA0
EFA0
FFE0
7F90
ENDCHAR
STARTCHAR rcaron
ENCODING 345
SWIDTH 578 0
DWIDTH 6 0
BBX 6 10 0 0
BITMAP
0500
3F80
2A80
3F80
AAA0
EAA0
EAA0
EFA0
FFE0
7F90
ENDCHAR
STARTCHAR Sacute
ENCODING 346
SWIDTH 578 0
DWIDTH 6 0
BBX 6 10 0 0
BITMAP
0100
0AC0
0E80
2F80
AAE0
E6A0
FF60
F5A0
FFE0
7F90
ENDCHAR
STARTCHAR sacute
ENCODING 347
SWIDTH 578 0
DWIDTH 6 0
BBX 6 10 0 0
BITMAP
0100
0AC0
0E80
2F80
AAE0
E6A0
FF60
F5A0
FFE0
7F90
ENDCHAR
STARTCHAR Scircumflex
ENCODING 348
SWIDTH 578 0
DWIDTH 6 0
BBX 6 10 0 0
BITMAP
0500
0E40
1AC0
3FC0
AAE0
E6A0
FF60
F5A0
FFE0
7F90
ENDCHAR
STARTCHAR scircumflex
ENCODING 349
SWIDTH 578 0
DWIDTH 6 0
BBX 6 10 0 0
BITMAP
0500
0E40
1AC0
3FC0
AAE0
E6A0
FF60
F5A0
FFE0
7F90
ENDCHAR
STARTCHAR Scedilla
ENCODING 350
SWIDTH 578 0
DWIDTH 6 0
BBX 6 7 0 0
BITMAP
2540
AAE0
E6A0
FF60
F5A0
F6E0
7F90
ENDCHAR
STARTCHAR scedilla
ENCODING 351
SWIDTH 578 0
DWIDTH 6 0
BBX 6 7 0 0
BITMAP
2540
AAE0
E6A0
FF60
F5A0
F6E0
7F90
ENDCHAR
STARTCHAR Scaron
ENCODING 352
SWIDTH 578 0
DWIDTH 6 0
BBX 6 10 0 0
BITMAP
0400
2FC0
1AC0
2FC0
AAE0
E6A0
FF60
F5A0
FFE0
7F90
ENDCHAR
STARTCHAR scaron
ENCODING 353
SWIDTH 578 0
DWIDTH 6 0
BBX 6 10 0 0
BITMAP
0400
2FC0
1AC0
2FC0
AAE0
E6A0
FF60
F5A0
FFE0
7F90
ENDCHAR
STARTCHAR Tcommaaccent
ENCODING 354
SWIDTH 578 0
DWIDTH 6 0
BBX 6 7 0 0
BITMAP
2540
B9E0
FEE0
FEE0
FEE0
FEE0
7F90
ENDCHAR
STARTCHAR tcommaaccent
ENCODING 355
SWIDTH 578 0
DWIDTH 6 0
BBX 6 7 0 0
BITMAP
2540
B9E0
FEE0
FEE0
FEE0
FEE0
7F90
ENDCHAR
STARTCHAR Tcaron
ENCODING 356
SWIDTH 578 0
DWIDTH 6 0
BBX 6 10 0 0
BITMAP
0500
2F80
2A80
2F80
B9E0
FEE0
FEE0
FEE0
FFE0
7F90
ENDCHAR
STARTCHAR tcaron
ENCODING 357
SWIDTH 578 0
DWIDTH 6 0
BBX 6 7 0 0
BITMAP
2540
B9A0
FEA0
FEE0
FEE0
FFE0
7F90
ENDCHAR
STARTCHAR Tbar
ENCODING 358
SWIDTH 578 0
DWIDTH 6 0
BBX 6 7 0 0
BITMAP
2540
B9E0
F9E0
FEE0
FEE0
FFE0
7F90
ENDCHAR
STARTCHAR tbar
ENCODING 359
SWIDTH 578 0
DWIDTH 6 0
BBX 6 7 0 0
BITMAP
2540
B9E0
F9E0
FEE0
FEE0
FFE0
7F90
ENDCHAR
STARTCHAR Utilde
ENCODING 360
SWIDTH 578 0
DWIDTH 6 0
BBX 6 9 0 0
BITMAP
2F80
3AD0
3FC0
AF60
EF60
EF60
E5A0
FFE0
7F90
ENDCHAR
STARTCHAR utilde
ENCODING 361
SWIDTH 578 0
DWIDTH 6 0
BBX 6 9 0 0
BITMAP
2F80
3AD0
3FC0
AF60
EF60
EF60
E5A0
FFE0
7F90
ENDCHAR
STARTCHAR Umacron
ENCODING 362
SWIDTH 578 0
DWIDTH 6 0
BBX 6 9 0 0
BITMAP
1B80
39D0
3FC0
AF60
EF60
EF60
E5A0
FFE0
7F90
ENDCHAR
STARTCHAR umacron
ENCODING 363
SWIDTH 578 0
DWIDTH 6 0
BBX 6 9 0 0
BITMAP
1B80
39D0
3FC0
AF60
EF60
EF60
E5A0
FFE0
7F90
ENDCHAR
STARTCHAR Ubreve
ENCODING 364
SWIDTH 578 0
DWIDTH 6 0
BBX 6 9 0 0
BITMAP
1B80
3AD0
3FC0
AF60
EF60
EF60
E5A0
FFE0
7F90
ENDCHAR
STARTCHAR ubreve
ENCODING 365
SWIDTH 578 0
DWIDTH 6 0
BBX 6 9 0 0
BITMAP
1B80
3AD0
3FC0
AF60
EF60
EF60
E5A0
FFE0
7F90
ENDCHAR
STARTCHAR Uring
ENCODING 366
SWIDTH 578 0
DWIDTH 6 0
BBX 6 9 0 0
BITMAP
1F40
29C0
3FC0
AF60
EF60
EF60
E5A0
FFE0
7F90
ENDCHAR
STARTCHAR uring
ENCODING 367
SWIDTH 578 0
DWIDTH 6 0
BBX 6 9 0 0
BITMAP
1F40
29C0
3FC0
AF60
EF60
EF60
E5A0
FFE0
7F90
ENDCHAR
STARTCHAR Uhungarumlaut
ENCODING 368
SWIDTH 581 0
DWIDTH 6 0
BBX 6 10 0 0
BITMAP
0140
0AA0
1E90
2FC0
AF60
EF60
EF60
E5A0
FFE0
7F90
ENDCHAR
STARTCHAR uhungarumlaut
ENCODING 369
SWIDTH 582 0
DWIDTH 6 0
BBX 6 10 0 0
BITMAP
0140
0AA0
1E90
2FC0
AF60
EF60
EF60
E5A0
FFE0
7F90
ENDCHAR
STARTCHAR Uogonek
ENCODING 370
SWIDTH 578 0
DWIDTH 6 0
BBX 6 7 0 0
BITMAP
1A40
AF60
EF60
EF60
E5A0
FAE0
7E90
ENDCHAR
STARTCHAR uogonek
ENCODING 371
SWIDTH 578 0
DWIDTH 6 0
BBX 6 7 0 0
BITMAP
1A40
AF60
EF60
EF60
E5A0
FAE0
7E90
ENDCHAR
STARTCHAR Wcircumflex
ENCODING 372
SWIDTH 578 0
DWIDTH 6 0
BBX 6 10 0 0
BITMAP
0500
1A40
2A80
3FC0
9A60
DA60
D560
EAA0
FFE0
7F90
ENDCHAR
STARTCHAR wcircumflex
ENCODING 373
SWIDTH 578 0
DWIDTH 6 0
BBX 6 10 0 0
BITMAP
0500
1A40
2A80
3FC0
9A60
DA60
D560
EAA0
FFE0
7F90
ENDCHAR
STARTCHAR Ycircumflex
ENCODING 374
SWIDTH 578 0
DWIDTH 6 0
BBX 6 10 0 0
BITMAP
0500
1E40
2A80
3FC0
B6A0
F5E0
FAE0
FEE0
FFE0
7F90
ENDCHAR
STARTCHAR ycircumflex
ENCODING 375
SWIDTH 578 0
DWIDTH 6 0
BBX 6 10 0 0
BITMAP
0500
1E40
2A80
3FC0
B6A0
F5E0
FAE0
FEE0
FFE0
7F90
ENDCHAR
STARTCHAR Ydieresis
ENCODING 376
SWIDTH 578 0
DWIDTH 6 0
BBX 6 9 0 0
BITMAP
1A40
2AC0
3FC0
B6A0
F5E0
FAE0
FEE0
FFE0
7F90
ENDCHAR
STARTCHAR Zacute
ENCODING 377
SWIDTH 578 0
DWIDTH 6 0
BBX 6 10 0 0
BITMAP
0500
0E80
1B40
2F40
B9E0
FEE0
F7E0
F6E0
FFE0
7F90
ENDCHAR
STARTCHAR zacute
ENCODING 378
SWIDTH 578 0
DWIDTH 6 0
BBX 6 10 0 0
BITMAP
0500
0E80
1B40
2F40
B9E0
FEE0
F7E0
F6E0
FFE0
7F90
ENDCHAR
STARTCHAR Zdotaccent
ENCODING 379
SWIDTH 578 0
DWIDTH 6 0
BBX 6 9 0 0
BITMAP
2E40
7BC0
7FC0
B9E0
FEE0
F7E0
F6E0
FFE0
7F90
ENDCHAR
STARTCHAR zdotaccent
ENCODING 380
SWIDTH 578 0
DWIDTH 6 0
BBX 6 9 0 0
BITMAP
2E40
7BC0
7FC0
B9E0
FEE0
F7E0
F6E0
FFE0
7F90
ENDCHAR
STARTCHAR Zcaron
ENCODING 381
SWIDTH 578 0
DWIDTH 6 0
BBX 6 10 0 0
BITMAP
0500
2F80
2A80
3F80
B9E0
FEE0
F7E0
F6E0
FFE0
7F90
ENDCHAR
STARTCHAR zcaron
ENCODING 382
SWIDTH 578 0
DWIDTH 6 0
BBX 6 10 0 0
BITMAP
0500
2F80
2A80
3F80
B9E0
FEE0
F7E0
F6E0
FFE0
7F90
ENDCHAR
STARTCHAR longs
ENCODING 383
SWIDTH 578 0
DWIDTH 6 0
BBX 6 7 0 0
BITMAP
2A40
BAA0
EFA0
EAA0
FFE0
FFE0
7F90
ENDCHAR
STARTCHAR florin
ENCODING 402
SWIDTH 578 0
DWIDTH 6 0
BBX 6 7 0 0
BITMAP
2940
BAE0
F6E0
F7E0
F7E0
FBE0
7F90
ENDCHAR
STARTCHAR uni01CD
ENCODING 461
SWIDTH 578 0
DWIDTH 6 0
BBX 6 10 0 0
BITMAP
0500
2F80
2A80
2FC0
A6A0
EAA0
EA60
EFA0
FFE0
7F90
ENDCHAR
STARTCHAR uni01CE
ENCODING 462
SWIDTH 578 0
DWIDTH 6 0
BBX 6 10 0 0
BITMAP
0400
2FC0
1A80
2FC0
BAA0
FAA0
DAA0
E5A0
FFE0
7F90
ENDCHAR
STARTCHAR uni01CF
ENCODING 463
SWIDTH 578 0
DWIDTH 6 0
BBX 6 10 0 0
BITMAP
0400
2FC0
1AC0
2F80
B9E0
FEE0
FEE0
F5A0
FFE0
7F90
ENDCHAR
STARTCHAR uni01D0
ENCODING 464
SWIDTH 578 0
DWIDTH 6 0
BBX 6 10 0 0
BITMAP
0400
2FC0
1A80
2F80
B9E0
FEE0
FEE0
F5A0
FFE0
7F90
ENDCHAR
STARTCHAR uni01D1
ENCODING 465
SWIDTH 578 0
DWIDTH 6 0
BBX 6 10 0 0
BITMAP
0400
2FC0
2A80
2F80
AA60
EF60
EF60
E5A0
FFE0
7F90
ENDCHAR
STARTCHAR uni01D3
ENCODING 467
SWIDTH 578 0
DWIDTH 6 0
BBX 6 10 0 0
BITMAP
0400
2FC0
1A80
2F80
AF60
EF60
EF60
E5A0
FFE0
7F90
ENDCHAR
STARTCHAR uni01D4
ENCODING 468
SWIDTH 578 0
DWIDTH 6 0
BBX 6 10 0 0
BITMAP
0400
2FC0
1A80
2F80
AF60
EF60
EF60
E5A0
FFE0
7F90
ENDCHAR
STARTCHAR uni0200
ENCODING 512
SWIDTH 578 0
DWIDTH 6 0
BBX 6 10 0 0
BITMAP
1500
6B00
7A40
3FC0
A6A0
EAA0
EA60
EFA0
FFE0
7F90
ENDCHAR
STARTCHAR uni0201
ENCODING 513
SWIDTH 578 0
DWIDTH 6 0
BBX 6 10 0 0
BITMAP
1500
6B00
7A40
3FC0
BAA0
FAA0
DAA0
E5A0
FFE0
7F90
ENDCHAR
STARTCHAR uni0202
ENCODING 514
SWIDTH 578 0
DWIDTH 6 0
BBX 6 10 0 0
BITMAP
0500
2F80
39C0
3FC0
A6A0
EAA0
EA60
EFA0
FFE0
7F90
ENDCHAR
STARTCHAR uni0203
ENCODING 515
SWIDTH 578 0
DWIDTH 6 0
BBX 6 10 0 0
BITMAP
0500
2F80
39C0
3FC0
BAA0
FAA0
DAA0
E5A0
FFE0
7F90
ENDCHAR
STARTCHAR uni0204
ENCODING 516
SWIDTH 578 0
DWIDTH 6 0
BBX 6 10 0 0
BITMAP
1500
6B00
7A40
3FC0
B6E0
F6E0
FBE0
F5A0
FFE0
7F90
ENDCHAR
STARTCHAR uni0205
ENCODING 517
SWIDTH 578 0
DWIDTH 6 0
BBX 6 10 0 0
BITMAP
1500
6B00
7A40
3FC0
AAA0
D5A0
DFE0
E5E0
FFE0
7F90
ENDCHAR
STARTCHAR uni0206
ENCODING 518
SWIDTH 578 0
DWIDTH 6 0
BBX 6 10 0 0
BITMAP
0500
2F80
39C0
3FC0
B6E0
F6E0
FBE0
F5A0
FFE0
7F90
ENDCHAR
STARTCHAR uni0207
ENCODING 519
SWIDTH 578 0
DWIDTH 6 0
BBX 6 10 0 0
BITMAP
0500
2F80
39C0
3FC0
AAA0
D5A0
DFE0
E5E0
FFE0
7F90
ENDCHAR
STARTCHAR uni0208
ENCODING 520
SWIDTH 578 0
DWIDTH 6 0
BBX 6 10 0 0
BITMAP
1500
6B00
7A40
3F80
B9E0
FEE0
FEE0
F5A0
FFE0
7F90
ENDCHAR
STARTCHAR uni0209
ENCODING 521
SWIDTH 578 0
DWIDTH 6 0
BBX 6 10 0 0
BITMAP
1500
6B00
7A40
3F80
B9E0
FEE0
FEE0
F5A0
FFE0
7F90
ENDCHAR
STARTCHAR uni020A
ENCODING 522
SWIDTH 578 0
DWIDTH 6 0
BBX 6 10 0 0
BITMAP
0500
2F80
39C0
3F80
B9E0
FEE0
FEE0
F5A0
FFE0
7F90
ENDCHAR
STARTCHAR uni020B
ENCODING 523
SWIDTH 578 0
DWIDTH 6 0
BBX 6 10 0 0
BITMAP
0500
2F80
39C0
3F80
B9E0
FEE0
FEE0
F5A0
FFE0
7F90
ENDCHAR
STARTCHAR uni020C
ENCODING 524
SWIDTH 578 0
DWIDTH 6 0
BBX 6 10 0 0
BITMAP
1500
6B00
7A40
3FC0
AA60
EF60
EF60
E5A0
FFE0
7F90
ENDCHAR
STARTCHAR uni020D
ENCODING 525
SWIDTH 578 0
DWIDTH 6 0
BBX 6 10 0 0
BITMAP
1500
6B00
7A40
3FC0
AA60
EF60
EF60
E5A0
FFE0
7F90
ENDCHAR
STARTCHAR uni020E
ENCODING 526
SWIDTH 578 0
DWIDTH 6 0
BBX 6 10 0 0
BITMAP
0500
2F80
39C0
3FC0
AA60
EF60
EF60
E5A0
FFE0
7F90
ENDCHAR
STARTCHAR uni020F
ENCODING 527
SWIDTH 578 0
DWIDTH 6 0
BBX 6 10 0 0
BITMAP
0500
2F80
39C0
3FC0
AA60
EF60
EF60
E5A0
FFE0
7F90
ENDCHAR
STARTCHAR uni0210
ENCODING 528
SWIDTH 578 0
DWIDTH 6 0
BBX 6 10 0 0
BITMAP
1500
6B00
7A40
3FC0
AAA0
EAA0
EAA0
EFA0
FFE0
7F90
ENDCHAR
STARTCHAR uni0211
ENCODING 529
SWIDTH 578 0
DWIDTH 6 0
BBX 6 10 0 0
BITMAP
1500
6B00
7A40
3FC0
AAA0
EAA0
EAA0
EFA0
FFE0
7F90
ENDCHAR
STARTCHAR uni0212
ENCODING 530
SWIDTH 578 0
DWIDTH 6 0
BBX 6 10 0 0
BITMAP
0500
2F80
39C0
3FC0
AAA0
EAA0
EAA0
EFA0
FFE0
7F90
ENDCHAR
STARTCHAR uni0213
ENCODING 531
SWIDTH 578 0
DWIDTH 6 0
BBX 6 10 0 0
BITMAP
0500
2F80
39C0
3FC0
AAA0
EAA0
EAA0
EFA0
FFE0
7F90
ENDCHAR
STARTCHAR uni0214
ENCODING 532
SWIDTH 578 0
DWIDTH 6 0
BBX 6 10 0 0
BITMAP
1500
6B00
7A40
3F80
AF60
EF60
EF60
E5A0
FFE0
7F90
ENDCHAR
STARTCHAR uni0215
ENCODING 533
SWIDTH 578 0
DWIDTH 6 0
BBX 6 10 0 0
BITMAP
1500
6B00
7A40
3F80
AF60
EF60
EF60
E5A0
FFE0
7F90
ENDCHAR
STARTCHAR uni0216
ENCODING 534
SWIDTH 578 0
DWIDTH 6 0
BBX 6 10 0 0
BITMAP
0500
2F80
39C0
3F80
AF60
EF60
EF60
E5A0
FFE0
7F90
ENDCHAR
STARTCHAR uni0217
ENCODING 535
SWIDTH 578 0
DWIDTH 6 0
BBX 6 10 0 0
BITMAP
0500
2F80
39C0
3F80
AF60
EF60
EF60
E5A0
FFE0
7F90
ENDCHAR
STARTCHAR uni0218
ENCODING 536
SWIDTH 578 0
DWIDTH 6 0
BBX 6 7 0 0
BITMAP
2540
AAE0
E6A0
FF60
F5A0
FEE0
7F90
ENDCHAR
STARTCHAR uni0219
ENCODING 537
SWIDTH 578 0
DWIDTH 6 0
BBX 6 7 0 0
BITMAP
2540
AAE0
E6A0
FF60
F5A0
FEE0
7F90
ENDCHAR
STARTCHAR uni021A
ENCODING 538
SWIDTH 578 0
DWIDTH 6 0
BBX 6 7 0 0
BITMAP
2540
B9E0
FEE0
FEE0
FEE0
FEE0
7F90
ENDCHAR
STARTCHAR uni021B
ENCODING 539
SWIDTH 578 0
DWIDTH 6 0
BBX 6 7 0 0
BITMAP
2540
B9E0
FEE0
FEE0
FEE0
FEE0
7F90
ENDCHAR
STARTCHAR circumflex
ENCODING 710
SWIDTH 355 0
DWIDTH 4 0
BBX 4 4 0 0
BITMAP
14
6C
E9
A9
ENDCHAR
STARTCHAR caron
ENCODING 711
SWIDTH 355 0
DWIDTH 4 0
BBX 4 4 0 0
BITMAP
04
FE
E9
68
ENDCHAR
STARTCHAR breve
ENCODING 728
SWIDTH 428 0
DWIDTH 4 0
BBX 5 3 0 0
BITMAP
6E00
EB40
AB00
ENDCHAR
STARTCHAR dotaccent
ENCODING 729
SWIDTH 428 0
DWIDTH 4 0
BBX 5 3 0 0
BITMAP
6E00
FB40
BF00
ENDCHAR
STARTCHAR ring
ENCODING 730
SWIDTH 368 0
DWIDTH 4 0
BBX 4 3 0 0
BITMAP
7D
DA
EE
ENDCHAR
STARTCHAR ogonek
ENCODING 731
SWIDTH 101 0
DWIDTH 1 0
BBX 1 2 0 -2
BITMAP
40
40
ENDCHAR
STARTCHAR tilde
ENCODING 732
SWIDTH 428 0
DWIDTH 4 0
BBX 5 3 0 0
BITMAP
BE00
EB40
AB00
ENDCHAR
STARTCHAR hungarumlaut
ENCODING 733
SWIDTH 419 0
DWIDTH 4 0
BBX 4 4 0 0
BITMAP
15
7E
AA
A9
ENDCHAR
STARTCHAR uni030F
ENCODING 783
SWIDTH 419 0
DWIDTH 4 0
BBX 4 4 0 0
BITMAP
54
A9
AB
2A
ENDCHAR
STARTCHAR mu
ENCODING 956
SWIDTH 578 0
DWIDTH 6 0
BBX 6 7 0 0
BITMAP
1A40
AF60
EF60
EF60
E5A0
FFE0
7F90
ENDCHAR
STARTCHAR pi
ENCODING 960
SWIDTH 578 0
DWIDTH 6 0
BBX 6 7 0 0
BITMAP
2A40
A5A0
BAE0
A9E0
EAA0
FAE0
7F90
ENDCHAR
STARTCHAR uni1E60
ENCODING 7776
SWIDTH 578 0
DWIDTH 6 0
BBX 6 9 0 0
BITMAP
1B80
3ED0
3FD0
AAE0
E6A0
FF60
F5A0
FFE0
7F90
ENDCHAR
STARTCHAR uni1E8E
ENCODING 7822
SWIDTH 578 0
DWIDTH 6 0
BBX 6 9 0 0
BITMAP
1B80
3ED0
3FC0
B6A0
F5E0
FAE0
FEE0
FFE0
7F90
ENDCHAR
STARTCHAR uni1E8F
ENCODING 7823
SWIDTH 578 0
DWIDTH 6 0
BBX 6 9 0 0
BITMAP
1B80
3ED0
3FC0
B6A0
F5E0
FAE0
FEE0
FFE0
7F90
ENDCHAR
STARTCHAR uni1EBC
ENCODING 7868
SWIDTH 578 0
DWIDTH 6 0
BBX 6 9 0 0
BITMAP
2F80
3AD0
3FC0
B6E0
F6E0
FBE0
F5A0
FFE0
7F90
ENDCHAR
STARTCHAR uni1EF8
ENCODING 7928
SWIDTH 578 0
DWIDTH 6 0
BBX 6 9 0 0
BITMAP
2F80
3AD0
3FC0
B6A0
F5E0
FAE0
FEE0
FFE0
7F90
ENDCHAR
STARTCHAR uni1EF9
ENCODING 7929
SWIDTH 578 0
DWIDTH 6 0
BBX 6 9 0 0
BITMAP
2F80
3AD0
3FC0
B6A0
F5E0
FAE0
FEE0
FFE0
7F90
ENDCHAR
STARTCHAR endash
ENCODING 8211
SWIDTH 428 0
DWIDTH 4 0
BBX 5 7 0 0
BITMAP
2900
BF00
E740
FF40
FF40
FF40
7E00
ENDCHAR
STARTCHAR emdash
ENCODING 8212
SWIDTH 428 0
DWIDTH 4 0
BBX 5 7 0 0
BITMAP
2900
BF00
5500
FF40
FF40
FF40
7E00
ENDCHAR
STARTCHAR quoteleft
ENCODING 8216
SWIDTH 428 0
DWIDTH 4 0
BBX 5 7 0 0
BITMAP
2900
BB00
FF40
FF40
FF40
FF40
7E00
ENDCHAR
STARTCHAR quoteright
ENCODING 8217
SWIDTH 428 0
DWIDTH 4 0
BBX 5 7 0 0
BITMAP
2500
BB00
FF40
FF40
FF40
FF40
7E00
ENDCHAR
STARTCHAR quotesinglbase
ENCODING 8218
SWIDTH 428 0
DWIDTH 4 0
BBX 5 7 0 0
BITMAP
2900
BF00
FF40
FF40
FB40
FF40
7E00
ENDCHAR
STARTCHAR quotedblleft
ENCODING 8220
SWIDTH 428 0
DWIDTH 4 0
BBX 5 7 0 0
BITMAP
1900
9700
FF40
FF40
FF40
FF40
7E00
ENDCHAR
STARTCHAR quotedblright
ENCODING 8221
SWIDTH 428 0
DWIDTH 4 0
BBX 5 7 0 0
BITMAP
1500
A700
FF40
FF40
FF40
FF40
7E00
ENDCHAR
STARTCHAR quotedblbase
ENCODING 8222
SWIDTH 428 0
DWIDTH 4 0
BBX 5 7 0 0
BITMAP
2900
BF00
FF40
FF40
E740
FF40
7E00
ENDCHAR
STARTCHAR dagger
ENCODING 8224
SWIDTH 578 0
DWIDTH 6 0
BBX 6 7 0 0
BITMAP
2A40
B9E0
FEE0
FEE0
FEE0
FFE0
7F90
ENDCHAR
STARTCHAR daggerdbl
ENCODING 8225
SWIDTH 578 0
DWIDTH 6 0
BBX 6 7 0 0
BITMAP
2A40
B9E0
FEE0
F9E0
FEE0
FFE0
7F90
ENDCHAR
STARTCHAR bullet
ENCODING 8226
SWIDTH 578 0
DWIDTH 6 0
BBX 6 7 0 0
BITMAP
2A40
B5A0
E060
E060
F5E0
FFE0
7F90
ENDCHAR
STARTCHAR ellipsis
ENCODING 8230
SWIDTH 578 0
DWIDTH 6 0
BBX 6 7 0 0
BITMAP
2A40
BFE0
FFE0
FFE0
EAA0
FFE0
7F90
ENDCHAR
STARTCHAR perthousand
ENCODING 8240
SWIDTH 640 0
DWIDTH 6 0
BBX 7 7 0 0
BITMAP
2A90
5BF4
A7F4
F554
E994
FFF4
7FE0
ENDCHAR
STARTCHAR guilsinglleft
ENCODING 8249
SWIDTH 578 0
DWIDTH 6 0
BBX 6 7 0 0
BITMAP
2A40
BEE0
FAE0
FBE0
FEE0
FFE0
7F90
ENDCHAR
STARTCHAR guilsinglright
ENCODING 8250
SWIDTH 578 0
DWIDTH 6 0
BBX 6 7 0 0
BITMAP
2A40
BBE0
FEE0
FEE0
FBE0
FFE0
7F90
ENDCHAR
STARTCHAR fraction
ENCODING 8260
SWIDTH 428 0
DWIDTH 4 0
BBX 5 7 0 0
BITMAP
2500
B700
FB40
EB40
EF40
FF40
7E00
ENDCHAR
STARTCHAR Euro
ENCODING 8364
SWIDTH 578 0
DWIDTH 6 0
BBX 6 7 0 0
BITMAP
2540
AAE0
D7E0
DBE0
E5E0
FFE0
7F90
ENDCHAR
STARTCHAR trademark
ENCODING 8482
SWIDTH 578 0
DWIDTH 6 0
BBX 6 7 0 0
BITMAP
2A40
BFE0
EAE0
E9A0
FFE0
FFE0
7F90
ENDCHAR
STARTCHAR product
ENCODING 8719
SWIDTH 578 0
DWIDTH 6 0
BBX 6 7 0 0
BITMAP
2A40
AAA0
BAA0
B6E0
EBA0
FAE0
7F90
ENDCHAR
STARTCHAR minus
ENCODING 8722
SWIDTH 428 0
DWIDTH 4 0
BBX 5 7 0 0
BITMAP
2900
BF00
E740
FF40
FF40
FF40
7E00
ENDCHAR
STARTCHAR notequal
ENCODING 8800
SWIDTH 578 0
DWIDTH 6 0
BBX 6 7 0 0
BITMAP
2A40
B9E0
E5E0
F6E0
FFE0
FFE0
7F90
ENDCHAR
STARTCHAR uni2706
ENCODING 9990
SWIDTH 578 0
DWIDTH 6 0
BBX 6 7 0 0
BITMAP
2A40
BAE0
E6E0
E7E0
F5E0
FFE0
7F90
ENDCHAR
STARTCHAR uni2708
ENCODING 9992
SWIDTH 578 0
DWIDTH 6 0
BBX 6 7 0 0
BITMAP
1540
4510
5A50
4510
4010
4510
5540
ENDCHAR
STARTCHAR uniF6D6
ENCODING 63190
SWIDTH 419 0
DWIDTH 4 0
BBX 4 4 0 0
BITMAP
54
A9
AB
2A
ENDCHAR
STARTCHAR uFFFF2
ENCODING 1048562
SWIDTH 578 0
DWIDTH 6 0
BBX 6 7 0 0
BITMAP
1540
4510
4A10
5550
4510
4510
5540
ENDCHAR
STARTCHAR uFFFF3
ENCODING 1048563
SWIDTH 578 0
DWIDTH 6 0
BBX 6 7 0 0
BITMAP
1540
4210
4A10
4A10
4610
4010
5540
ENDCHAR
STARTCHAR uFFFF4
ENCODING 1048564
SWIDTH 578 0
DWIDTH 6 0
BBX 6 7 0 0
BITMAP
2A40
BAE0
EAA0
EFA0
FAE0
FFE0
7F90
ENDCHAR
STARTCHAR uFFFF5
ENCODING 1048565
SWIDTH 578 0
DWIDTH 6 0
BBX 6 7 0 0
BITMAP
2A40
BAE0
E5A0
FAE0
FFE0
FAE0
7F90
ENDCHAR
STARTCHAR uFFFF6
ENCODING 1048566
SWIDTH 578 0
DWIDTH 6 0
BBX 6 7 0 0
BITMAP
2A40
BAE0
F5E0
EAA0
FAE0
FAE0
7F90
ENDCHAR
STARTCHAR uFFFF8
ENCODING 1048568
SWIDTH 578 0
DWIDTH 6 0
BBX 6 7 0 0
BITMAP
2A40
BAE0
F5E0
E5A0
E0E0
FAE0
7F90
ENDCHAR
STARTCHAR uFFFF9
ENCODING 1048569
SWIDTH 578 0
DWIDTH 6 0
BBX 6 7 0 0
BITMAP
1540
4510
5550
5050
4510
4010
5540
ENDCHAR
STARTCHAR uFFFFB
ENCODING 1048571
SWIDTH 578 0
DWIDTH 6 0
BBX 6 7 0 0
BITMAP
2A40
B9E0
F5E0
F5E0
FAE0
FFE0
7F90
ENDCHAR
STARTCHAR uFFFFC
ENCODING 1048572
SWIDTH 578 0
DWIDTH 6 0
BBX 6 7 0 0
BITMAP
2A40
A5A0
E5A0
FAE0
FFE0
FFE0
7F90
ENDCHAR
STARTCHAR uFFFFD
ENCODING 1048573
SWIDTH 578 0
DWIDTH 6 0
BBX 6 7 0 0
BITMAP
2A40
B1E0
E5A0
E5E0
F6E0
FAE0
7F90
ENDCHAR
STARTCHAR uFFFFE
ENCODING 1048574
SWIDTH 578 0
DWIDTH 6 0
BBX 6 7 0 0
BITMAP
2A40
9A60
D6A0
D560
FFE0
FFE0
7F90
ENDCHAR
STARTCHAR uFFFFF
ENCODING 1048575
SWIDTH 578 0
DWIDTH 6 0
BBX 6 7 0 0
BITMAP
1540
4E10
5A50
5A10
4910
4510
5540
ENDCHAR
STARTCHAR .notdef
ENCODING -1
SWIDTH 1000 0
DWIDTH 10 0
BBX 1 1 0 0
BITMAP
00
ENDCHAR
STARTCHAR glyph1
ENCODING -1
SWIDTH 0 0
DWIDTH 0 0
BBX 1 1 0 0
BITMAP
00
ENDCHAR
ENDFONT
